<?xml version="1.0" encoding="utf-8"?>
<!-- Generator: Adobe Illustrator 24.0.1, SVG Export Plug-In . SVG Version: 6.00 Build 0)  -->
<svg version="1.1" id="Layer_1" xmlns="http://www.w3.org/2000/svg" xmlns:xlink="http://www.w3.org/1999/xlink" x="0px" y="0px"
	 viewBox="0 0 1320.94 317.48" style="enable-background:new 0 0 1320.94 317.48;" xml:space="preserve">
<style type="text/css">
	.st0{fill:#006353;}
	.st1{fill:#00614F;}
	.st2{fill:#006456;stroke:#00614F;stroke-width:0.25;stroke-miterlimit:10;}
	.st3{fill:#A5B8B3;stroke:#00614F;stroke-width:0.25;stroke-miterlimit:10;}
	.st4{fill:#F1F3F2;stroke:#00614F;stroke-width:0.25;stroke-miterlimit:10;}
	.st5{fill:#BCCBC7;stroke:#00614F;stroke-width:0.25;stroke-miterlimit:10;}
	.st6{fill:#FFFFFF;stroke:#00614F;stroke-width:0.25;stroke-miterlimit:10;}
	.st7{fill:#F6FAF8;stroke:#00614F;stroke-width:0.25;stroke-miterlimit:10;}
	.st8{fill:#FAFBFC;stroke:#00614F;stroke-width:0.25;stroke-miterlimit:10;}
	.st9{fill:#FAFDFA;stroke:#00614F;stroke-width:0.25;stroke-miterlimit:10;}
	.st10{fill:#F3F5F4;stroke:#00614F;stroke-width:0.25;stroke-miterlimit:10;}
</style>
<g>
	<g>
		<path class="st0" d="M268.11,50.09c1.2-1.66,3.12-3.2,5.76-4.63c2.63-1.43,5.54-2.15,8.7-2.15h7.23V10.77
			c2.41-1.95,5.23-3.42,8.47-4.41c3.24-0.98,6.36-1.47,9.38-1.47v38.42h44.29c-0.15,2.56-0.87,4.71-2.15,6.44
			c-1.28,1.73-2.9,2.6-4.86,2.6h-37.29v74.12c0,4.82,0.57,8.7,1.69,11.64c1.13,2.94,2.67,5.24,4.63,6.89
			c1.96,1.66,4.22,2.79,6.78,3.39c2.56,0.6,5.2,0.9,7.91,0.9c4.97,0,9.11-0.98,12.43-2.94c3.31-1.96,6.02-3.99,8.13-6.1
			c2.11,0.6,3.46,1.89,4.07,3.84c-0.76,1.21-1.96,2.79-3.62,4.75c-1.66,1.96-3.84,3.88-6.55,5.76c-2.71,1.89-5.95,3.5-9.72,4.86
			c-3.77,1.36-7.99,2.03-12.65,2.03c-4.22,0-8.21-0.53-11.98-1.58c-3.77-1.05-7.04-2.78-9.83-5.2c-2.79-2.41-5.01-5.65-6.67-9.72
			c-1.66-4.07-2.49-9.11-2.49-15.14V52.35h-21.69V50.09z"/>
		<path class="st0" d="M380.42,44.66c4.97-2.56,10.62-3.84,16.95-3.84v32.54c1.5-4.52,3.54-8.85,6.1-12.99
			c2.56-4.14,5.61-7.79,9.15-10.96c3.54-3.16,7.49-5.68,11.86-7.57c4.37-1.88,9.19-2.83,14.46-2.83c4.07,0,7.61,0.64,10.62,1.92
			c3.01,1.28,5.5,2.86,7.46,4.75c1.96,1.89,3.43,4.03,4.41,6.44c0.98,2.41,1.54,4.75,1.69,7.01c-1.21,2.11-3.28,3.92-6.21,5.42
			c-2.94,1.51-5.84,2.41-8.7,2.71c-0.76-4.07-2.41-7.68-4.97-10.85c-2.56-3.16-6.86-4.74-12.88-4.74c-4.37,0-8.4,1.28-12.09,3.84
			c-3.69,2.56-6.97,6.14-9.83,10.73c-2.86,4.6-5.16,10.06-6.89,16.38c-1.73,6.33-2.82,13.26-3.28,20.79v53.56
			c-2.11,1.21-4.86,2.07-8.25,2.6c-3.39,0.53-6.59,0.79-9.6,0.79V44.66z"/>
		<path class="st0" d="M537.01,149.74c7.23,0,13.78-2.07,19.66-6.21c5.88-4.14,10.32-9.75,13.33-16.84V44.66
			c2.56-1.36,5.38-2.33,8.47-2.94c3.09-0.6,6.21-0.9,9.38-0.9v116.15c-2.11,1.21-4.71,2.07-7.8,2.6c-3.09,0.53-6.14,0.79-9.15,0.79
			v-21.47c-1.51,2.56-3.58,5.24-6.21,8.02c-2.64,2.79-5.76,5.35-9.38,7.68c-3.62,2.34-7.72,4.26-12.32,5.76
			c-4.6,1.5-9.68,2.26-15.25,2.26c-5.58,0-10.81-0.83-15.7-2.49c-4.9-1.66-9.15-4.25-12.77-7.8c-3.62-3.54-6.48-7.98-8.59-13.33
			c-2.11-5.35-3.16-11.71-3.16-19.09V44.66c2.56-1.36,5.38-2.33,8.47-2.94c3.09-0.6,6.21-0.9,9.38-0.9v72.31
			c0,6.78,0.83,12.51,2.49,17.17c1.66,4.67,3.92,8.44,6.78,11.3c2.86,2.86,6.21,4.94,10.06,6.21
			C528.54,149.1,532.64,149.74,537.01,149.74z"/>
		<path class="st0" d="M619.71,134.83c1.2-2.11,3.2-4.07,5.99-5.88c2.79-1.81,5.76-2.86,8.93-3.16c1.05,7.68,4.78,14.05,11.19,19.09
			c6.4,5.05,14.57,7.57,24.52,7.57c9.49,0,16.53-2.07,21.13-6.21c4.59-4.14,6.89-9.3,6.89-15.48c0-6.18-2.15-11-6.44-14.46
			c-4.29-3.46-11.64-6.48-22.03-9.04l-13.33-3.39c-4.82-1.2-9.15-2.56-12.99-4.07c-3.84-1.5-7.16-3.35-9.94-5.53
			c-2.79-2.18-4.94-4.78-6.44-7.8c-1.51-3.01-2.26-6.7-2.26-11.07c0-4.67,1.2-9.23,3.62-13.67c2.41-4.44,5.76-8.4,10.06-11.87
			c4.29-3.46,9.26-6.21,14.91-8.25c5.65-2.03,11.79-3.05,18.42-3.05c6.78,0,12.5,0.79,17.18,2.37c4.67,1.58,8.55,3.54,11.64,5.88
			c3.09,2.34,5.35,4.86,6.78,7.57c1.43,2.71,2.22,5.12,2.37,7.23c-1.06,2.11-2.86,3.95-5.42,5.54c-2.56,1.58-5.35,2.52-8.36,2.83
			c-1.06-5.72-3.99-10.69-8.81-14.92c-4.82-4.21-12.05-6.33-21.69-6.33c-3.16,0-6.29,0.42-9.38,1.24c-3.09,0.83-5.84,2.07-8.25,3.73
			c-2.41,1.66-4.37,3.65-5.87,5.99c-1.51,2.34-2.26,5.09-2.26,8.25c0,5.12,1.81,9.23,5.42,12.32c3.62,3.09,9.94,5.69,18.98,7.8
			l13.78,3.39c13.11,3.32,22.48,7.5,28.13,12.54c5.65,5.05,8.47,11.49,8.47,19.32c0,4.97-1.13,9.83-3.39,14.57
			c-2.26,4.75-5.58,8.96-9.94,12.66c-4.37,3.69-9.72,6.63-16.04,8.81c-6.33,2.18-13.56,3.28-21.69,3.28
			c-7.08,0-13.26-0.87-18.53-2.6c-5.27-1.73-9.76-3.95-13.44-6.67c-3.69-2.71-6.52-5.68-8.47-8.93
			C621.14,141.19,620.01,137.99,619.71,134.83z"/>
		<path class="st0" d="M730.67,50.09c1.2-1.66,3.12-3.2,5.76-4.63c2.63-1.43,5.54-2.15,8.7-2.15h7.23V10.77
			c2.41-1.95,5.23-3.42,8.47-4.41c3.24-0.98,6.36-1.47,9.38-1.47v38.42h44.29c-0.15,2.56-0.87,4.71-2.15,6.44
			c-1.28,1.73-2.9,2.6-4.86,2.6h-37.28v74.12c0,4.82,0.56,8.7,1.69,11.64c1.13,2.94,2.67,5.24,4.63,6.89
			c1.96,1.66,4.21,2.79,6.78,3.39c2.56,0.6,5.2,0.9,7.91,0.9c4.97,0,9.11-0.98,12.43-2.94c3.31-1.96,6.03-3.99,8.14-6.1
			c2.11,0.6,3.46,1.89,4.07,3.84c-0.76,1.21-1.96,2.79-3.62,4.75c-1.66,1.96-3.84,3.88-6.55,5.76c-2.71,1.89-5.95,3.5-9.72,4.86
			c-3.77,1.36-7.99,2.03-12.66,2.03c-4.22,0-8.21-0.53-11.98-1.58c-3.77-1.05-7.04-2.78-9.83-5.2c-2.79-2.41-5.01-5.65-6.67-9.72
			c-1.66-4.07-2.49-9.11-2.49-15.14V52.35h-21.69V50.09z"/>
		<path class="st0" d="M942.62,150.42c-0.45,0.75-1.17,1.66-2.15,2.71c-0.98,1.06-2.07,2.07-3.28,3.05
			c-1.21,0.98-2.52,1.85-3.95,2.6c-1.43,0.75-2.75,1.28-3.95,1.58c-4.82-0.3-8.89-2.15-12.2-5.54c-3.32-3.39-5.12-7.87-5.42-13.45
			c-1.21,2.26-3.01,4.63-5.42,7.12c-2.41,2.48-5.31,4.74-8.7,6.78c-3.39,2.04-7.27,3.69-11.64,4.97c-4.37,1.28-9.12,1.92-14.24,1.92
			c-10.7,0-19.17-2.71-25.42-8.13c-6.25-5.42-9.38-12.66-9.38-21.69c0-9.34,3.54-17.18,10.62-23.5
			c7.08-6.33,19.21-10.99,36.38-14.01l26.89-4.74v-8.81c0-10.85-2.53-19.13-7.57-24.86c-5.05-5.72-12.54-8.59-22.49-8.59
			c-6.18,0-11.41,1.55-15.71,4.63c-4.29,3.09-6.44,7.65-6.44,13.67c0,2.71,0.9,5.12,2.71,7.23c-1.36,1.81-3.54,3.47-6.55,4.97
			c-3.01,1.51-6.1,2.41-9.26,2.71c-0.76-0.75-1.66-1.88-2.71-3.39c-1.06-1.5-1.58-3.54-1.58-6.1c0-4.67,1.36-9.04,4.07-13.1
			c2.71-4.07,6.25-7.57,10.62-10.51c4.37-2.94,9.41-5.23,15.14-6.89c5.72-1.66,11.67-2.49,17.85-2.49c14.46,0,24.71,3.28,30.73,9.83
			c6.02,6.55,9.04,15.71,9.04,27.46v56.72c0,6.18,1.36,10.43,4.07,12.77c2.71,2.34,5.88,3.73,9.49,4.18L942.62,150.42z
			 M878.9,150.19c7.83,0,14.5-1.81,20-5.42c5.5-3.62,9.45-8.28,11.86-14.01V98.22l-30.28,5.42c-8.14,1.51-14.35,4.07-18.64,7.68
			s-6.44,8.81-6.44,15.59c0,7.53,2.3,13.3,6.89,17.29C866.89,148.2,872.42,150.19,878.9,150.19z"/>
		<path class="st0" d="M975.16,40.82c2.11,7.68,4.63,15.93,7.57,24.74s6.18,17.74,9.72,26.78c3.54,9.04,7.23,18,11.07,26.89
			c3.84,8.89,7.72,17.17,11.64,24.86c9.34-18.53,16.8-36.19,22.37-52.99c5.57-16.8,10.09-32.73,13.56-47.79
			c1.96-0.9,4.1-1.54,6.44-1.92c2.33-0.37,4.56-0.57,6.67-0.57c0.75,0,1.54,0,2.37,0c0.83,0,1.62,0.08,2.37,0.23
			c-4.22,13.56-10.02,29.26-17.4,47.11c-7.38,17.85-15.82,36.35-25.31,55.48c-4.07,8.29-7.8,15.74-11.19,22.37
			c-3.39,6.63-6.59,12.73-9.6,18.3c-3.02,5.57-5.95,10.77-8.81,15.59c-2.86,4.82-5.73,9.64-8.59,14.46
			c-1.51,0.75-3.65,1.39-6.44,1.92c-2.79,0.53-5.69,0.79-8.7,0.79c-2.86,0-5.27-0.23-7.23-0.68v-0.9
			c6.33-7.38,12.88-15.45,19.66-24.18c6.78-8.74,13.56-18.76,20.34-30.05c-4.52-7.98-9.19-16.95-14.01-26.89
			c-4.82-9.94-9.38-20.03-13.67-30.28c-4.29-10.24-8.29-20.37-11.98-30.39c-3.69-10.02-6.67-19.17-8.93-27.46
			c2.41-1.66,5.31-2.97,8.7-3.95C969.17,41.31,972.3,40.82,975.16,40.82z"/>
		<path class="st0" d="M1145.54,149.74c7.23,0,13.78-2.07,19.66-6.21c5.88-4.14,10.32-9.75,13.33-16.84V44.66
			c2.56-1.36,5.38-2.33,8.47-2.94c3.09-0.6,6.21-0.9,9.38-0.9v116.15c-2.11,1.21-4.71,2.07-7.8,2.6c-3.09,0.53-6.14,0.79-9.15,0.79
			v-21.47c-1.51,2.56-3.58,5.24-6.21,8.02c-2.64,2.79-5.76,5.35-9.38,7.68c-3.62,2.34-7.72,4.26-12.32,5.76
			c-4.6,1.5-9.68,2.26-15.25,2.26c-5.58,0-10.81-0.83-15.71-2.49c-4.9-1.66-9.15-4.25-12.77-7.8c-3.62-3.54-6.48-7.98-8.59-13.33
			c-2.11-5.35-3.16-11.71-3.16-19.09V44.66c2.56-1.36,5.38-2.33,8.47-2.94c3.09-0.6,6.21-0.9,9.38-0.9v72.31
			c0,6.78,0.83,12.51,2.48,17.17c1.66,4.67,3.92,8.44,6.78,11.3c2.86,2.86,6.21,4.94,10.05,6.21
			C1137.07,149.1,1141.17,149.74,1145.54,149.74z"/>
		<path class="st0" d="M1237.74,44.66c4.97-2.56,10.62-3.84,16.95-3.84v32.54c1.5-4.52,3.54-8.85,6.1-12.99
			c2.56-4.14,5.61-7.79,9.15-10.96c3.54-3.16,7.49-5.68,11.86-7.57c4.37-1.88,9.19-2.83,14.46-2.83c4.07,0,7.61,0.64,10.62,1.92
			c3.01,1.28,5.5,2.86,7.46,4.75c1.95,1.89,3.42,4.03,4.41,6.44c0.98,2.41,1.54,4.75,1.69,7.01c-1.21,2.11-3.28,3.92-6.21,5.42
			c-2.94,1.51-5.84,2.41-8.7,2.71c-0.76-4.07-2.41-7.68-4.97-10.85c-2.56-3.16-6.86-4.74-12.88-4.74c-4.37,0-8.4,1.28-12.09,3.84
			c-3.69,2.56-6.97,6.14-9.83,10.73c-2.86,4.6-5.16,10.06-6.89,16.38c-1.73,6.33-2.83,13.26-3.28,20.79v53.56
			c-2.11,1.21-4.86,2.07-8.25,2.6c-3.39,0.53-6.59,0.79-9.61,0.79V44.66z"/>
	</g>
	<g>
		<path class="st0" d="M284.9,261.91c0.38-0.53,1-1.02,1.84-1.48c0.84-0.46,1.76-0.68,2.77-0.68h2.3v-10.36
			c0.77-0.62,1.67-1.09,2.7-1.4c1.03-0.31,2.03-0.47,2.99-0.47v12.24h14.11c-0.05,0.82-0.28,1.5-0.68,2.05
			c-0.41,0.55-0.92,0.83-1.55,0.83h-11.88v23.61c0,1.54,0.18,2.77,0.54,3.71c0.36,0.94,0.85,1.67,1.48,2.19
			c0.62,0.53,1.34,0.89,2.16,1.08c0.82,0.19,1.66,0.29,2.52,0.29c1.58,0,2.9-0.31,3.96-0.93c1.05-0.62,1.92-1.27,2.59-1.94
			c0.67,0.19,1.1,0.6,1.3,1.22c-0.24,0.38-0.62,0.89-1.15,1.51c-0.53,0.62-1.22,1.24-2.09,1.84c-0.86,0.6-1.9,1.12-3.1,1.55
			c-1.2,0.43-2.54,0.65-4.03,0.65c-1.34,0-2.62-0.17-3.81-0.5c-1.2-0.34-2.24-0.89-3.13-1.66c-0.89-0.77-1.6-1.8-2.12-3.1
			c-0.53-1.3-0.79-2.9-0.79-4.82v-24.69h-6.91V261.91z"/>
		<path class="st0" d="M320.67,260.18c1.58-0.82,3.38-1.22,5.4-1.22v10.36c0.48-1.44,1.13-2.82,1.94-4.14
			c0.82-1.32,1.79-2.48,2.92-3.49c1.13-1.01,2.39-1.81,3.78-2.41c1.39-0.6,2.93-0.9,4.61-0.9c1.3,0,2.42,0.2,3.38,0.61
			c0.96,0.41,1.75,0.91,2.38,1.51c0.62,0.6,1.09,1.28,1.4,2.05c0.31,0.77,0.49,1.51,0.54,2.23c-0.39,0.67-1.04,1.25-1.98,1.73
			c-0.93,0.48-1.86,0.77-2.77,0.86c-0.24-1.3-0.77-2.45-1.58-3.45c-0.82-1.01-2.18-1.51-4.1-1.51c-1.39,0-2.68,0.41-3.85,1.22
			c-1.18,0.82-2.22,1.96-3.13,3.42c-0.91,1.46-1.64,3.2-2.19,5.22c-0.55,2.02-0.9,4.22-1.04,6.62v17.06
			c-0.67,0.38-1.55,0.66-2.63,0.83c-1.08,0.17-2.1,0.25-3.06,0.25V260.18z"/>
		<path class="st0" d="M370.55,293.65c2.3,0,4.39-0.66,6.26-1.98c1.87-1.32,3.29-3.11,4.25-5.36v-26.13
			c0.82-0.43,1.72-0.74,2.7-0.94c0.98-0.19,1.98-0.29,2.99-0.29v37c-0.67,0.38-1.5,0.66-2.48,0.83c-0.98,0.17-1.96,0.25-2.92,0.25
			v-6.84c-0.48,0.82-1.14,1.67-1.98,2.55c-0.84,0.89-1.84,1.7-2.99,2.45c-1.15,0.74-2.46,1.36-3.92,1.84
			c-1.46,0.48-3.08,0.72-4.86,0.72c-1.78,0-3.44-0.26-5-0.79c-1.56-0.53-2.92-1.35-4.07-2.48c-1.15-1.13-2.06-2.54-2.74-4.25
			c-0.67-1.7-1.01-3.73-1.01-6.08v-23.97c0.81-0.43,1.71-0.74,2.7-0.94c0.98-0.19,1.98-0.29,2.99-0.29v23.03
			c0,2.16,0.26,3.98,0.79,5.47c0.53,1.49,1.25,2.69,2.16,3.6c0.91,0.91,1.98,1.57,3.2,1.98
			C367.85,293.45,369.16,293.65,370.55,293.65z"/>
		<path class="st0" d="M396.89,288.9c0.38-0.67,1.02-1.3,1.91-1.87c0.89-0.58,1.84-0.91,2.84-1.01c0.33,2.45,1.52,4.47,3.56,6.08
			c2.04,1.61,4.64,2.41,7.81,2.41c3.02,0,5.27-0.66,6.73-1.98c1.46-1.32,2.2-2.96,2.2-4.93c0-1.97-0.68-3.5-2.05-4.61
			c-1.37-1.1-3.71-2.06-7.02-2.88l-4.25-1.08c-1.54-0.38-2.92-0.82-4.14-1.3c-1.22-0.48-2.28-1.07-3.17-1.76s-1.57-1.52-2.05-2.48
			c-0.48-0.96-0.72-2.13-0.72-3.53c0-1.49,0.38-2.94,1.15-4.35c0.77-1.41,1.84-2.67,3.2-3.78c1.37-1.1,2.95-1.98,4.75-2.63
			c1.8-0.65,3.75-0.97,5.87-0.97c2.16,0,3.98,0.25,5.47,0.76c1.49,0.5,2.72,1.13,3.71,1.87c0.98,0.74,1.7,1.55,2.16,2.41
			c0.46,0.86,0.71,1.63,0.76,2.3c-0.34,0.67-0.91,1.26-1.73,1.76c-0.82,0.5-1.7,0.8-2.66,0.9c-0.34-1.82-1.27-3.41-2.81-4.75
			c-1.54-1.34-3.84-2.01-6.91-2.01c-1.01,0-2,0.13-2.99,0.4c-0.98,0.27-1.86,0.66-2.63,1.19c-0.77,0.53-1.39,1.16-1.87,1.91
			c-0.48,0.74-0.72,1.62-0.72,2.63c0,1.63,0.58,2.94,1.73,3.92c1.15,0.98,3.17,1.81,6.05,2.48l4.39,1.08
			c4.18,1.06,7.16,2.39,8.96,3.99c1.8,1.61,2.7,3.66,2.7,6.15c0,1.58-0.36,3.13-1.08,4.64c-0.72,1.51-1.78,2.86-3.17,4.03
			c-1.39,1.18-3.1,2.11-5.11,2.81c-2.02,0.69-4.32,1.04-6.91,1.04c-2.26,0-4.22-0.28-5.9-0.83c-1.68-0.55-3.11-1.26-4.28-2.12
			c-1.18-0.86-2.08-1.81-2.7-2.84C397.35,290.93,396.99,289.91,396.89,288.9z"/>
		<path class="st0" d="M432.23,261.91c0.38-0.53,1-1.02,1.84-1.48c0.84-0.46,1.76-0.68,2.77-0.68h2.3v-10.36
			c0.77-0.62,1.67-1.09,2.7-1.4c1.03-0.31,2.03-0.47,2.99-0.47v12.24h14.11c-0.05,0.82-0.28,1.5-0.68,2.05
			c-0.41,0.55-0.92,0.83-1.55,0.83h-11.88v23.61c0,1.54,0.18,2.77,0.54,3.71c0.36,0.94,0.85,1.67,1.48,2.19
			c0.62,0.53,1.34,0.89,2.16,1.08c0.82,0.19,1.66,0.29,2.52,0.29c1.58,0,2.9-0.31,3.96-0.93c1.05-0.62,1.92-1.27,2.59-1.94
			c0.67,0.19,1.1,0.6,1.3,1.22c-0.24,0.38-0.62,0.89-1.15,1.51c-0.53,0.62-1.22,1.24-2.09,1.84c-0.86,0.6-1.9,1.12-3.1,1.55
			c-1.2,0.43-2.54,0.65-4.03,0.65c-1.34,0-2.62-0.17-3.81-0.5c-1.2-0.34-2.24-0.89-3.13-1.66c-0.89-0.77-1.6-1.8-2.12-3.1
			c-0.53-1.3-0.79-2.9-0.79-4.82v-24.69h-6.91V261.91z"/>
		<path class="st0" d="M513.86,274.07c0-4.08-0.84-7.07-2.52-8.96c-1.68-1.89-4.06-2.84-7.13-2.84c-1.1,0-2.2,0.2-3.28,0.61
			c-1.08,0.41-2.11,0.95-3.09,1.62c-0.98,0.67-1.91,1.45-2.77,2.34c-0.86,0.89-1.63,1.81-2.3,2.77v26.34
			c-0.67,0.38-1.55,0.66-2.63,0.83c-1.08,0.17-2.1,0.25-3.06,0.25v-36.85c1.58-0.82,3.36-1.22,5.33-1.22v7.13
			c0.62-0.82,1.43-1.69,2.41-2.63c0.98-0.94,2.09-1.79,3.31-2.56c1.22-0.77,2.57-1.4,4.03-1.91c1.46-0.5,3.03-0.76,4.71-0.76
			c3.89,0,6.97,1.18,9.25,3.53c2.28,2.35,3.42,5.71,3.42,10.08v24.11c-0.67,0.38-1.55,0.66-2.63,0.83c-1.08,0.17-2.1,0.25-3.06,0.25
			V274.07z"/>
		<path class="st0" d="M564.38,293.87c-0.14,0.24-0.37,0.53-0.68,0.86c-0.31,0.34-0.66,0.66-1.04,0.97
			c-0.39,0.31-0.8,0.59-1.26,0.83c-0.46,0.24-0.88,0.41-1.26,0.5c-1.54-0.1-2.83-0.68-3.89-1.76c-1.06-1.08-1.63-2.51-1.73-4.28
			c-0.39,0.72-0.96,1.48-1.73,2.27c-0.77,0.79-1.69,1.51-2.77,2.16c-1.08,0.65-2.32,1.18-3.71,1.58c-1.39,0.41-2.9,0.61-4.53,0.61
			c-3.41,0-6.11-0.86-8.1-2.59c-1.99-1.73-2.99-4.03-2.99-6.91c0-2.98,1.13-5.47,3.38-7.49c2.26-2.02,6.12-3.5,11.59-4.46l8.57-1.51
			v-2.81c0-3.45-0.8-6.09-2.41-7.92c-1.61-1.82-3.99-2.74-7.16-2.74c-1.97,0-3.63,0.49-5,1.48c-1.37,0.98-2.05,2.44-2.05,4.35
			c0,0.86,0.29,1.63,0.86,2.3c-0.43,0.58-1.13,1.1-2.09,1.58c-0.96,0.48-1.94,0.77-2.95,0.86c-0.24-0.24-0.53-0.6-0.86-1.08
			c-0.34-0.48-0.5-1.13-0.5-1.94c0-1.49,0.43-2.88,1.3-4.18c0.86-1.3,1.99-2.41,3.38-3.35c1.39-0.94,3-1.67,4.82-2.19
			c1.82-0.53,3.72-0.79,5.69-0.79c4.61,0,7.87,1.04,9.79,3.13c1.92,2.09,2.88,5,2.88,8.75v18.07c0,1.97,0.43,3.32,1.3,4.07
			c0.86,0.74,1.87,1.19,3.02,1.33L564.38,293.87z M544.09,293.8c2.49,0,4.62-0.58,6.37-1.73c1.75-1.15,3.01-2.64,3.78-4.46v-10.36
			l-9.64,1.73c-2.59,0.48-4.57,1.3-5.94,2.45c-1.37,1.15-2.05,2.81-2.05,4.97c0,2.4,0.73,4.24,2.2,5.51
			C540.26,293.16,542.02,293.8,544.09,293.8z"/>
		<path class="st0" d="M568.49,261.91c0.38-0.53,1-1.02,1.84-1.48c0.84-0.46,1.76-0.68,2.77-0.68h2.3v-10.36
			c0.77-0.62,1.67-1.09,2.7-1.4c1.03-0.31,2.03-0.47,2.99-0.47v12.24h14.11c-0.05,0.82-0.28,1.5-0.68,2.05
			c-0.41,0.55-0.92,0.83-1.55,0.83h-11.88v23.61c0,1.54,0.18,2.77,0.54,3.71c0.36,0.94,0.85,1.67,1.48,2.19
			c0.62,0.53,1.34,0.89,2.16,1.08c0.82,0.19,1.66,0.29,2.52,0.29c1.58,0,2.9-0.31,3.96-0.93c1.05-0.62,1.92-1.27,2.59-1.94
			c0.67,0.19,1.1,0.6,1.3,1.22c-0.24,0.38-0.62,0.89-1.15,1.51c-0.53,0.62-1.22,1.24-2.09,1.84c-0.86,0.6-1.9,1.12-3.1,1.55
			c-1.2,0.43-2.54,0.65-4.03,0.65c-1.34,0-2.62-0.17-3.81-0.5c-1.2-0.34-2.24-0.89-3.13-1.66c-0.89-0.77-1.6-1.8-2.12-3.1
			c-0.53-1.3-0.79-2.9-0.79-4.82v-24.69h-6.91V261.91z"/>
		<path class="st0" d="M619.81,293.65c2.3,0,4.39-0.66,6.26-1.98c1.87-1.32,3.29-3.11,4.25-5.36v-26.13
			c0.82-0.43,1.72-0.74,2.7-0.94c0.98-0.19,1.98-0.29,2.99-0.29v37c-0.67,0.38-1.5,0.66-2.48,0.83c-0.98,0.17-1.96,0.25-2.92,0.25
			v-6.84c-0.48,0.82-1.14,1.67-1.98,2.55c-0.84,0.89-1.84,1.7-2.99,2.45c-1.15,0.74-2.46,1.36-3.92,1.84s-3.08,0.72-4.86,0.72
			c-1.78,0-3.44-0.26-5-0.79c-1.56-0.53-2.92-1.35-4.07-2.48c-1.15-1.13-2.06-2.54-2.74-4.25c-0.67-1.7-1.01-3.73-1.01-6.08v-23.97
			c0.81-0.43,1.71-0.74,2.7-0.94c0.98-0.19,1.98-0.29,2.99-0.29v23.03c0,2.16,0.26,3.98,0.79,5.47c0.53,1.49,1.25,2.69,2.16,3.6
			c0.91,0.91,1.98,1.57,3.2,1.98C617.11,293.45,618.41,293.65,619.81,293.65z"/>
		<path class="st0" d="M649.17,260.18c1.58-0.82,3.38-1.22,5.4-1.22v10.36c0.48-1.44,1.13-2.82,1.94-4.14
			c0.82-1.32,1.79-2.48,2.92-3.49c1.13-1.01,2.39-1.81,3.78-2.41c1.39-0.6,2.93-0.9,4.61-0.9c1.3,0,2.42,0.2,3.38,0.61
			c0.96,0.41,1.75,0.91,2.38,1.51c0.62,0.6,1.09,1.28,1.4,2.05c0.31,0.77,0.49,1.51,0.54,2.23c-0.39,0.67-1.04,1.25-1.98,1.73
			c-0.93,0.48-1.86,0.77-2.77,0.86c-0.24-1.3-0.77-2.45-1.58-3.45c-0.82-1.01-2.18-1.51-4.1-1.51c-1.39,0-2.68,0.41-3.85,1.22
			c-1.18,0.82-2.22,1.96-3.13,3.42c-0.91,1.46-1.64,3.2-2.19,5.22c-0.55,2.02-0.9,4.22-1.04,6.62v17.06
			c-0.67,0.38-1.55,0.66-2.63,0.83c-1.08,0.17-2.1,0.25-3.06,0.25V260.18z"/>
		<path class="st0" d="M685.02,277.96c0.14,2.59,0.61,4.86,1.4,6.8c0.79,1.94,1.81,3.56,3.06,4.86c1.25,1.3,2.7,2.27,4.36,2.92
			c1.66,0.65,3.42,0.97,5.29,0.97c2.35,0,4.38-0.31,6.08-0.93c1.7-0.62,3.25-1.61,4.64-2.95c0.67,0.14,1.13,0.6,1.37,1.37
			c-0.34,0.53-0.88,1.18-1.62,1.94c-0.74,0.77-1.73,1.51-2.95,2.23c-1.22,0.72-2.69,1.33-4.39,1.84c-1.7,0.5-3.68,0.76-5.94,0.76
			c-2.4,0-4.63-0.43-6.69-1.3s-3.86-2.11-5.4-3.74c-1.54-1.63-2.75-3.65-3.64-6.05c-0.89-2.4-1.33-5.11-1.33-8.13
			c0-2.78,0.48-5.41,1.44-7.88c0.96-2.47,2.27-4.62,3.92-6.44c1.66-1.82,3.6-3.27,5.83-4.35s4.62-1.62,7.16-1.62
			c2.74,0,4.99,0.46,6.77,1.37c1.78,0.91,3.18,2.09,4.21,3.53c1.03,1.44,1.75,3.02,2.16,4.75c0.41,1.73,0.61,3.41,0.61,5.04
			c-0.38,0.58-0.9,1.08-1.55,1.51c-0.65,0.43-1.36,0.77-2.12,1.01L685.02,277.96z M695.74,261.48c-1.49,0-2.88,0.26-4.18,0.79
			c-1.3,0.53-2.42,1.34-3.38,2.45c-0.96,1.1-1.74,2.52-2.34,4.25c-0.6,1.73-0.93,3.81-0.97,6.26l20.3-2.09
			c0.05-0.24,0.07-0.48,0.07-0.72c0-0.24,0-0.46,0-0.65c0-1.49-0.19-2.85-0.58-4.1c-0.39-1.25-0.97-2.33-1.76-3.24
			c-0.79-0.91-1.78-1.63-2.95-2.16C698.78,261.74,697.37,261.48,695.74,261.48z"/>
		<path class="st0" d="M735.91,261.91c0.38-0.53,1-1.02,1.84-1.48c0.84-0.46,1.76-0.68,2.77-0.68h2.3v-10.36
			c0.77-0.62,1.67-1.09,2.7-1.4c1.03-0.31,2.03-0.47,2.99-0.47v12.24h14.11c-0.05,0.82-0.28,1.5-0.68,2.05
			c-0.41,0.55-0.92,0.83-1.55,0.83H748.5v23.61c0,1.54,0.18,2.77,0.54,3.71c0.36,0.94,0.85,1.67,1.48,2.19
			c0.62,0.53,1.34,0.89,2.16,1.08c0.82,0.19,1.66,0.29,2.52,0.29c1.58,0,2.9-0.31,3.96-0.93c1.05-0.62,1.92-1.27,2.59-1.94
			c0.67,0.19,1.1,0.6,1.3,1.22c-0.24,0.38-0.62,0.89-1.15,1.51c-0.53,0.62-1.22,1.24-2.09,1.84c-0.86,0.6-1.9,1.12-3.1,1.55
			c-1.2,0.43-2.54,0.65-4.03,0.65c-1.34,0-2.62-0.17-3.81-0.5c-1.2-0.34-2.24-0.89-3.13-1.66c-0.89-0.77-1.6-1.8-2.12-3.1
			c-0.53-1.3-0.79-2.9-0.79-4.82v-24.69h-6.91V261.91z"/>
		<path class="st0" d="M771.68,260.18c1.58-0.82,3.38-1.22,5.4-1.22v10.36c0.48-1.44,1.13-2.82,1.94-4.14
			c0.82-1.32,1.79-2.48,2.92-3.49c1.13-1.01,2.39-1.81,3.78-2.41c1.39-0.6,2.93-0.9,4.61-0.9c1.3,0,2.42,0.2,3.38,0.61
			c0.96,0.41,1.75,0.91,2.38,1.51c0.62,0.6,1.09,1.28,1.4,2.05c0.31,0.77,0.49,1.51,0.54,2.23c-0.39,0.67-1.04,1.25-1.98,1.73
			c-0.93,0.48-1.86,0.77-2.77,0.86c-0.24-1.3-0.77-2.45-1.58-3.45c-0.82-1.01-2.18-1.51-4.1-1.51c-1.39,0-2.68,0.41-3.85,1.22
			c-1.18,0.82-2.22,1.96-3.13,3.42c-0.91,1.46-1.64,3.2-2.19,5.22c-0.55,2.02-0.9,4.22-1.04,6.62v17.06
			c-0.67,0.38-1.55,0.66-2.63,0.83c-1.08,0.17-2.1,0.25-3.06,0.25V260.18z"/>
		<path class="st0" d="M821.56,293.65c2.3,0,4.39-0.66,6.26-1.98c1.87-1.32,3.29-3.11,4.25-5.36v-26.13
			c0.82-0.43,1.72-0.74,2.7-0.94c0.98-0.19,1.98-0.29,2.99-0.29v37c-0.67,0.38-1.5,0.66-2.48,0.83c-0.98,0.17-1.96,0.25-2.92,0.25
			v-6.84c-0.48,0.82-1.14,1.67-1.98,2.55c-0.84,0.89-1.84,1.7-2.99,2.45c-1.15,0.74-2.46,1.36-3.92,1.84
			c-1.46,0.48-3.08,0.72-4.86,0.72c-1.78,0-3.44-0.26-5-0.79c-1.56-0.53-2.92-1.35-4.07-2.48c-1.15-1.13-2.06-2.54-2.74-4.25
			c-0.67-1.7-1.01-3.73-1.01-6.08v-23.97c0.81-0.43,1.71-0.74,2.7-0.94c0.98-0.19,1.98-0.29,2.99-0.29v23.03
			c0,2.16,0.26,3.98,0.79,5.47c0.53,1.49,1.25,2.69,2.16,3.6c0.91,0.91,1.98,1.57,3.2,1.98
			C818.86,293.45,820.17,293.65,821.56,293.65z"/>
		<path class="st0" d="M847.9,288.9c0.38-0.67,1.02-1.3,1.91-1.87c0.89-0.58,1.84-0.91,2.84-1.01c0.33,2.45,1.52,4.47,3.56,6.08
			c2.04,1.61,4.64,2.41,7.81,2.41c3.02,0,5.27-0.66,6.73-1.98c1.46-1.32,2.2-2.96,2.2-4.93c0-1.97-0.68-3.5-2.05-4.61
			c-1.37-1.1-3.71-2.06-7.02-2.88l-4.25-1.08c-1.54-0.38-2.92-0.82-4.14-1.3c-1.22-0.48-2.28-1.07-3.17-1.76s-1.57-1.52-2.05-2.48
			c-0.48-0.96-0.72-2.13-0.72-3.53c0-1.49,0.38-2.94,1.15-4.35c0.77-1.41,1.84-2.67,3.2-3.78c1.37-1.1,2.95-1.98,4.75-2.63
			c1.8-0.65,3.75-0.97,5.87-0.97c2.16,0,3.98,0.25,5.47,0.76c1.49,0.5,2.72,1.13,3.71,1.87c0.98,0.74,1.7,1.55,2.16,2.41
			c0.46,0.86,0.71,1.63,0.76,2.3c-0.34,0.67-0.91,1.26-1.73,1.76c-0.82,0.5-1.7,0.8-2.66,0.9c-0.34-1.82-1.27-3.41-2.81-4.75
			c-1.54-1.34-3.84-2.01-6.91-2.01c-1.01,0-2,0.13-2.99,0.4c-0.98,0.27-1.86,0.66-2.63,1.19c-0.77,0.53-1.39,1.16-1.87,1.91
			c-0.48,0.74-0.72,1.62-0.72,2.63c0,1.63,0.58,2.94,1.73,3.92c1.15,0.98,3.17,1.81,6.05,2.48l4.39,1.08
			c4.18,1.06,7.16,2.39,8.96,3.99c1.8,1.61,2.7,3.66,2.7,6.15c0,1.58-0.36,3.13-1.08,4.64c-0.72,1.51-1.78,2.86-3.17,4.03
			c-1.39,1.18-3.1,2.11-5.11,2.81c-2.02,0.69-4.32,1.04-6.91,1.04c-2.26,0-4.22-0.28-5.9-0.83c-1.68-0.55-3.11-1.26-4.28-2.12
			c-1.18-0.86-2.08-1.81-2.7-2.84C848.36,290.93,848,289.91,847.9,288.9z"/>
		<path class="st0" d="M883.24,261.91c0.38-0.53,1-1.02,1.84-1.48c0.84-0.46,1.76-0.68,2.77-0.68h2.3v-10.36
			c0.77-0.62,1.67-1.09,2.7-1.4c1.03-0.31,2.03-0.47,2.99-0.47v12.24h14.11c-0.05,0.82-0.28,1.5-0.68,2.05
			c-0.41,0.55-0.92,0.83-1.55,0.83h-11.88v23.61c0,1.54,0.18,2.77,0.54,3.71c0.36,0.94,0.85,1.67,1.48,2.19
			c0.62,0.53,1.34,0.89,2.16,1.08c0.82,0.19,1.66,0.29,2.52,0.29c1.58,0,2.9-0.31,3.96-0.93c1.05-0.62,1.92-1.27,2.59-1.94
			c0.67,0.19,1.1,0.6,1.3,1.22c-0.24,0.38-0.62,0.89-1.15,1.51c-0.53,0.62-1.22,1.24-2.09,1.84c-0.86,0.6-1.9,1.12-3.1,1.55
			c-1.2,0.43-2.54,0.65-4.03,0.65c-1.34,0-2.62-0.17-3.81-0.5c-1.2-0.34-2.24-0.89-3.13-1.66c-0.89-0.77-1.6-1.8-2.12-3.1
			c-0.53-1.3-0.79-2.9-0.79-4.82v-24.69h-6.91V261.91z"/>
		<path class="st0" d="M969.83,293.87c-0.14,0.24-0.37,0.53-0.68,0.86c-0.31,0.34-0.66,0.66-1.04,0.97
			c-0.39,0.31-0.8,0.59-1.26,0.83c-0.46,0.24-0.88,0.41-1.26,0.5c-1.54-0.1-2.83-0.68-3.89-1.76c-1.06-1.08-1.63-2.51-1.73-4.28
			c-0.39,0.72-0.96,1.48-1.73,2.27c-0.77,0.79-1.69,1.51-2.77,2.16c-1.08,0.65-2.32,1.18-3.71,1.58c-1.39,0.41-2.9,0.61-4.53,0.61
			c-3.41,0-6.11-0.86-8.1-2.59c-1.99-1.73-2.99-4.03-2.99-6.91c0-2.98,1.13-5.47,3.38-7.49c2.26-2.02,6.12-3.5,11.59-4.46l8.57-1.51
			v-2.81c0-3.45-0.8-6.09-2.41-7.92c-1.61-1.82-3.99-2.74-7.16-2.74c-1.97,0-3.63,0.49-5,1.48c-1.37,0.98-2.05,2.44-2.05,4.35
			c0,0.86,0.29,1.63,0.86,2.3c-0.43,0.58-1.13,1.1-2.09,1.58c-0.96,0.48-1.94,0.77-2.95,0.86c-0.24-0.24-0.53-0.6-0.86-1.08
			c-0.34-0.48-0.5-1.13-0.5-1.94c0-1.49,0.43-2.88,1.3-4.18c0.86-1.3,1.99-2.41,3.38-3.35c1.39-0.94,3-1.67,4.82-2.19
			c1.82-0.53,3.72-0.79,5.69-0.79c4.61,0,7.87,1.04,9.79,3.13c1.92,2.09,2.88,5,2.88,8.75v18.07c0,1.97,0.43,3.32,1.3,4.07
			c0.86,0.74,1.87,1.19,3.02,1.33L969.83,293.87z M949.53,293.8c2.49,0,4.62-0.58,6.37-1.73c1.75-1.15,3.01-2.64,3.78-4.46v-10.36
			l-9.64,1.73c-2.59,0.48-4.57,1.3-5.94,2.45c-1.37,1.15-2.05,2.81-2.05,4.97c0,2.4,0.73,4.24,2.2,5.51
			C945.71,293.16,947.47,293.8,949.53,293.8z"/>
		<path class="st0" d="M980.2,258.96c0.67,2.45,1.48,5.07,2.41,7.88c0.94,2.81,1.97,5.65,3.1,8.53c1.13,2.88,2.3,5.73,3.53,8.56
			c1.22,2.83,2.46,5.47,3.71,7.92c2.97-5.9,5.35-11.53,7.13-16.88c1.77-5.35,3.21-10.42,4.32-15.22c0.62-0.29,1.31-0.49,2.05-0.61
			c0.74-0.12,1.45-0.18,2.12-0.18c0.24,0,0.49,0,0.76,0s0.52,0.03,0.76,0.07c-1.34,4.32-3.19,9.32-5.54,15.01
			c-2.35,5.69-5.04,11.58-8.06,17.67c-1.3,2.64-2.48,5.01-3.56,7.13c-1.08,2.11-2.1,4.05-3.06,5.83c-0.96,1.77-1.9,3.43-2.81,4.97
			c-0.91,1.54-1.82,3.07-2.74,4.61c-0.48,0.24-1.16,0.44-2.05,0.61c-0.89,0.17-1.81,0.25-2.77,0.25c-0.91,0-1.68-0.07-2.3-0.22
			v-0.29c2.02-2.35,4.1-4.92,6.26-7.7c2.16-2.78,4.32-5.97,6.48-9.57c-1.44-2.54-2.93-5.4-4.46-8.57c-1.54-3.17-2.99-6.38-4.35-9.64
			c-1.37-3.26-2.64-6.49-3.81-9.68c-1.18-3.19-2.12-6.11-2.84-8.75c0.77-0.53,1.69-0.95,2.77-1.26
			C978.29,259.12,979.28,258.96,980.2,258.96z"/>
		<path class="st0" d="M1034.47,293.65c2.3,0,4.39-0.66,6.26-1.98c1.87-1.32,3.29-3.11,4.25-5.36v-26.13
			c0.82-0.43,1.72-0.74,2.7-0.94c0.98-0.19,1.98-0.29,2.99-0.29v37c-0.67,0.38-1.5,0.66-2.48,0.83c-0.98,0.17-1.96,0.25-2.92,0.25
			v-6.84c-0.48,0.82-1.14,1.67-1.98,2.55c-0.84,0.89-1.84,1.7-2.99,2.45c-1.15,0.74-2.46,1.36-3.92,1.84s-3.08,0.72-4.86,0.72
			c-1.78,0-3.44-0.26-5-0.79c-1.56-0.53-2.92-1.35-4.07-2.48c-1.15-1.13-2.06-2.54-2.74-4.25c-0.67-1.7-1.01-3.73-1.01-6.08v-23.97
			c0.81-0.43,1.71-0.74,2.7-0.94c0.98-0.19,1.98-0.29,2.99-0.29v23.03c0,2.16,0.26,3.98,0.79,5.47c0.53,1.49,1.25,2.69,2.16,3.6
			c0.91,0.91,1.98,1.57,3.2,1.98C1031.77,293.45,1033.07,293.65,1034.47,293.65z"/>
		<path class="st0" d="M1063.83,260.18c1.58-0.82,3.38-1.22,5.4-1.22v10.36c0.48-1.44,1.13-2.82,1.94-4.14
			c0.82-1.32,1.79-2.48,2.92-3.49c1.13-1.01,2.39-1.81,3.78-2.41c1.39-0.6,2.93-0.9,4.61-0.9c1.3,0,2.42,0.2,3.38,0.61
			c0.96,0.41,1.75,0.91,2.38,1.51c0.62,0.6,1.09,1.28,1.4,2.05c0.31,0.77,0.49,1.51,0.54,2.23c-0.39,0.67-1.04,1.25-1.98,1.73
			c-0.93,0.48-1.86,0.77-2.77,0.86c-0.24-1.3-0.77-2.45-1.58-3.45c-0.82-1.01-2.18-1.51-4.1-1.51c-1.39,0-2.68,0.41-3.85,1.22
			c-1.18,0.82-2.22,1.96-3.13,3.42c-0.91,1.46-1.64,3.2-2.19,5.22c-0.55,2.02-0.9,4.22-1.04,6.62v17.06
			c-0.67,0.38-1.55,0.66-2.63,0.83c-1.08,0.17-2.1,0.25-3.06,0.25V260.18z"/>
		<path class="st0" d="M1116.02,295.74c-0.58,0.39-1.38,0.7-2.41,0.94c-1.03,0.24-1.96,0.36-2.77,0.36c-1.3-2.21-2.66-4.88-4.1-8.03
			c-1.44-3.14-2.83-6.41-4.18-9.79c-1.34-3.38-2.55-6.71-3.63-9.97c-1.08-3.26-1.93-6.17-2.56-8.71c0.82-0.53,1.69-0.92,2.63-1.19
			c0.94-0.26,1.91-0.4,2.92-0.4c0.53,2.3,1.23,4.92,2.12,7.85c0.89,2.93,1.88,5.94,2.99,9.03c1.1,3.09,2.27,6.15,3.49,9.18
			c1.22,3.02,2.46,5.78,3.71,8.28c2.59-5.18,4.86-10.69,6.8-16.52c1.94-5.83,3.47-11.43,4.57-16.81c0.53-0.29,1.15-0.53,1.87-0.72
			c0.72-0.19,1.44-0.29,2.16-0.29c0.24,0,0.48,0,0.72,0s0.48,0.03,0.72,0.07c-0.77,2.88-1.7,5.9-2.81,9.07
			c-1.1,3.17-2.32,6.35-3.64,9.54c-1.32,3.19-2.71,6.33-4.18,9.43C1118.98,290.16,1117.5,293.05,1116.02,295.74z"/>
		<path class="st0" d="M1141.78,277.96c0.14,2.59,0.61,4.86,1.4,6.8c0.79,1.94,1.81,3.56,3.06,4.86c1.25,1.3,2.7,2.27,4.36,2.92
			c1.66,0.65,3.42,0.97,5.29,0.97c2.35,0,4.38-0.31,6.08-0.93c1.7-0.62,3.25-1.61,4.64-2.95c0.67,0.14,1.13,0.6,1.37,1.37
			c-0.34,0.53-0.88,1.18-1.62,1.94c-0.74,0.77-1.73,1.51-2.95,2.23c-1.22,0.72-2.69,1.33-4.39,1.84c-1.7,0.5-3.68,0.76-5.94,0.76
			c-2.4,0-4.63-0.43-6.69-1.3c-2.06-0.86-3.86-2.11-5.4-3.74c-1.54-1.63-2.75-3.65-3.64-6.05c-0.89-2.4-1.33-5.11-1.33-8.13
			c0-2.78,0.48-5.41,1.44-7.88c0.96-2.47,2.27-4.62,3.92-6.44c1.66-1.82,3.6-3.27,5.83-4.35c2.23-1.08,4.62-1.62,7.16-1.62
			c2.74,0,4.99,0.46,6.77,1.37c1.78,0.91,3.18,2.09,4.21,3.53c1.03,1.44,1.75,3.02,2.16,4.75c0.41,1.73,0.61,3.41,0.61,5.04
			c-0.38,0.58-0.9,1.08-1.55,1.51c-0.65,0.43-1.36,0.77-2.12,1.01L1141.78,277.96z M1152.51,261.48c-1.49,0-2.88,0.26-4.18,0.79
			c-1.3,0.53-2.42,1.34-3.38,2.45c-0.96,1.1-1.74,2.52-2.34,4.25c-0.6,1.73-0.93,3.81-0.97,6.26l20.3-2.09
			c0.05-0.24,0.07-0.48,0.07-0.72c0-0.24,0-0.46,0-0.65c0-1.49-0.19-2.85-0.58-4.1c-0.39-1.25-0.97-2.33-1.76-3.24
			c-0.79-0.91-1.78-1.63-2.95-2.16C1155.54,261.74,1154.14,261.48,1152.51,261.48z"/>
		<path class="st0" d="M1205.27,291.57c-0.53,0.72-1.18,1.44-1.94,2.16c-0.77,0.72-1.69,1.37-2.77,1.94
			c-1.08,0.58-2.32,1.06-3.71,1.44c-1.39,0.38-2.95,0.58-4.68,0.58c-2.11,0-4.13-0.38-6.05-1.15c-1.92-0.77-3.63-1.91-5.15-3.42
			c-1.51-1.51-2.71-3.38-3.6-5.61c-0.89-2.23-1.33-4.81-1.33-7.74c0-2.88,0.54-5.63,1.62-8.24c1.08-2.61,2.56-4.91,4.43-6.87
			c1.87-1.97,4.07-3.53,6.59-4.68c2.52-1.15,5.22-1.73,8.1-1.73c1.92,0,3.56,0.23,4.93,0.68c1.37,0.46,2.56,1.02,3.56,1.69v-18.43
			c0.81-0.43,1.72-0.74,2.7-0.94c0.98-0.19,1.98-0.29,2.99-0.29v54.99c-0.67,0.38-1.55,0.66-2.63,0.83
			c-1.08,0.17-2.1,0.25-3.06,0.25V291.57z M1194.83,293.58c2.69,0,4.91-0.64,6.66-1.91c1.75-1.27,3.01-2.75,3.78-4.43v-19.51
			c-0.39-0.77-0.88-1.52-1.48-2.27c-0.6-0.74-1.33-1.42-2.19-2.02c-0.86-0.6-1.86-1.08-2.99-1.44c-1.13-0.36-2.39-0.54-3.78-0.54
			c-1.58,0-3.14,0.31-4.68,0.93c-1.54,0.62-2.92,1.57-4.14,2.84c-1.22,1.27-2.21,2.89-2.95,4.86c-0.74,1.97-1.12,4.27-1.12,6.91
			c0,3.02,0.4,5.58,1.19,7.67c0.79,2.09,1.8,3.79,3.02,5.11c1.22,1.32,2.6,2.28,4.14,2.88
			C1191.83,293.28,1193.34,293.58,1194.83,293.58z"/>
		<path class="st0" d="M1256.01,293.87c-0.14,0.24-0.37,0.53-0.68,0.86c-0.31,0.34-0.66,0.66-1.04,0.97
			c-0.39,0.31-0.8,0.59-1.26,0.83c-0.46,0.24-0.88,0.41-1.26,0.5c-1.54-0.1-2.83-0.68-3.89-1.76c-1.06-1.08-1.63-2.51-1.73-4.28
			c-0.39,0.72-0.96,1.48-1.73,2.27c-0.77,0.79-1.69,1.51-2.77,2.16c-1.08,0.65-2.32,1.18-3.71,1.58c-1.39,0.41-2.9,0.61-4.53,0.61
			c-3.41,0-6.11-0.86-8.1-2.59c-1.99-1.73-2.99-4.03-2.99-6.91c0-2.98,1.13-5.47,3.38-7.49c2.26-2.02,6.12-3.5,11.59-4.46l8.56-1.51
			v-2.81c0-3.45-0.8-6.09-2.41-7.92c-1.61-1.82-3.99-2.74-7.16-2.74c-1.97,0-3.63,0.49-5,1.48c-1.37,0.98-2.05,2.44-2.05,4.35
			c0,0.86,0.29,1.63,0.86,2.3c-0.43,0.58-1.13,1.1-2.09,1.58c-0.96,0.48-1.94,0.77-2.95,0.86c-0.24-0.24-0.53-0.6-0.86-1.08
			c-0.34-0.48-0.5-1.13-0.5-1.94c0-1.49,0.43-2.88,1.3-4.18c0.86-1.3,1.99-2.41,3.38-3.35c1.39-0.94,3-1.67,4.82-2.19
			c1.82-0.53,3.72-0.79,5.69-0.79c4.61,0,7.87,1.04,9.79,3.13c1.92,2.09,2.88,5,2.88,8.75v18.07c0,1.97,0.43,3.32,1.3,4.07
			c0.86,0.74,1.87,1.19,3.02,1.33L1256.01,293.87z M1235.72,293.8c2.49,0,4.62-0.58,6.37-1.73c1.75-1.15,3.01-2.64,3.78-4.46v-10.36
			l-9.64,1.73c-2.59,0.48-4.57,1.3-5.94,2.45c-1.37,1.15-2.05,2.81-2.05,4.97c0,2.4,0.73,4.24,2.2,5.51
			C1231.89,293.16,1233.65,293.8,1235.72,293.8z"/>
	</g>
	<path class="st1" d="M189.56,295.16c-3.34,0-6.05-2.71-6.05-6.05V10.15c0-3.34,2.71-6.05,6.05-6.05c3.34,0,6.05,2.71,6.05,6.05
		v278.96C195.61,292.45,192.9,295.16,189.56,295.16z"/>
	<g>
		<path class="st2" d="M20.08,88.78c-0.18-0.54-0.36-1.08-0.52-1.63c-0.36-1.2-0.41-2.43-0.18-3.66c0.29-1.6,1.95-2.7,3.55-2.39
			c0.4,0.08,0.8,0.19,1.19,0.29c0.15-0.21,0.03-0.37-0.02-0.54c-0.23-0.72-0.32-1.46-0.31-2.22c0.03-1.56,1.1-2.6,2.69-2.63
			c0.39-0.01,0.75,0.25,1.22,0.04c-0.07-0.63-0.39-1.24-0.33-1.89c0.01-0.15-0.03-0.3-0.04-0.45c-0.06-2.16,1.64-2.84,3.29-3.12
			c0.12-0.02,0.24,0,0.36,0c1.27-0.01,1.33,0,1.44-1.22c0.06-0.65,0.35-1.17,0.59-1.74c0.4-0.97,0.69-1.99,1.09-2.96
			c2.26-5.42,4.77-10.72,8.13-15.56c1.41-2.03,2.95-3.95,4.71-5.69c0.94-0.93,1.95-1.78,3.11-2.45c1.05-0.62,2.14-0.48,3.21-0.12
			c0.46,0.16,0.66,0.66,1.03,0.94c0.2-0.07,0.2-0.23,0.25-0.37c0.18-0.48,0.32-0.97,0.55-1.42c0.82-1.6,2.78-1.91,4.08-0.65
			c0.43,0.42,0.81,0.87,1.13,1.56c0.22-0.5,0.15-0.85,0.15-1.19c0.01-1.06,0.12-2.1,0.42-3.11c0.14-0.46,0.3-0.91,0.55-1.33
			c1.1-1.88,3.18-2.05,4.64-0.41c0.55,0.62,0.88,1.35,1.33,2.17c0.18-0.47,0.11-0.85,0.1-1.2c-0.05-1.55,0.2-3.05,0.7-4.51
			c0.08-0.23,0.17-0.45,0.27-0.67c0.87-1.9,2.55-2.22,4.11-0.78c0.06,0.06,0.14,0.1,0.28,0.2c0.08-0.59,0.13-1.14,0.22-1.68
			c0.23-1.38,0.69-2.68,1.5-3.83c0.95-1.36,2.69-1.48,3.87-0.27c0.25,0.26,0.46,0.55,0.76,0.89c0.13-0.27,0.19-0.52,0.24-0.8
			c0.24-1.33,0.55-2.65,1.18-3.86c0.08-0.16,0.17-0.32,0.26-0.47c0.9-1.7,2.61-1.51,3.89-0.54c0.12,0.09,0.19,0.24,0.41,0.25
			c0.38-0.95,0.61-1.97,1.06-2.92c0.23-0.49,0.49-0.97,0.8-1.41c0.83-1.19,2.35-1.32,3.42-0.3c0.24,0.23,0.45,0.48,0.61,0.77
			c0.14,0.26,0.15,0.58,0.4,0.84c0.29-0.85,0.39-1.72,0.77-2.5c0.14-0.3,0.25-0.61,0.42-0.89c0.98-1.62,2.26-1.86,4.1-0.93
			c0.1,0.05,0.19,0.14,0.32,0.24c0.35-0.48,0.3-1.04,0.41-1.54c0.34-1.59,0.96-3.03,1.96-4.31c0.62-0.8,1.3-1.2,2.38-1.05
			c1.34,0.18,2.2,0.8,2.6,2.08c0.33-0.01,0.36-0.3,0.47-0.49c0.82-1.49,1.87-2.8,3.17-3.89c0.55-0.47,1.12-1.01,1.86-1.03
			c1.2-0.02,2.43-0.1,3.42,0.89c0.85,0.84,0.94,1.77,0.62,2.81c-0.48,1.59-1.46,2.89-2.56,4.09c-1.82,1.99-3.91,3.65-6.21,5.04
			c-0.17,0.1-0.4,0.14-0.49,0.47c0.31,0,0.59,0.01,0.88,0c0.46-0.02,0.89,0.1,1.32,0.25c1.04,0.39,1.37,1.1,0.97,2.12
			c-0.28,0.71-0.71,1.31-1.23,1.87c-1.29,1.41-2.81,2.54-4.45,3.5c-0.21,0.12-0.41,0.26-0.6,0.39c-0.04,0.03-0.04,0.1-0.07,0.2
			c0.26,0.1,0.53,0.19,0.79,0.32c0.89,0.43,1.12,1.06,0.8,1.99c-0.27,0.8-0.83,1.39-1.39,1.97c-2.05,2.12-4.53,3.65-7.04,5.14
			c-0.25,0.15-0.54,0.24-0.75,0.56c0.49,0.09,0.92,0.14,1.34,0.25c0.31,0.08,0.62,0.2,0.88,0.43c0.96,0.82,1.13,1.45,0.6,2.63
			c-0.56,1.24-1.55,2.14-2.56,2.99c-1.4,1.19-2.98,2.13-4.58,3.03c0.08,0.27,0.31,0.26,0.48,0.33c0.25,0.1,0.51,0.19,0.74,0.32
			c0.99,0.55,1.28,1.31,0.84,2.33c-0.71,1.64-1.93,2.89-3.24,4.06c-0.91,0.81-1.87,1.57-2.9,2.43c0.59,0.07,1.08,0.11,1.56,0.2
			c0.84,0.16,1.62,0.43,2.2,1.12c0.4,0.48,0.54,0.99,0.34,1.59c-0.23,0.69-0.55,1.33-1,1.91c-0.93,1.19-2.01,2.23-3.15,3.22
			c-0.24,0.21-0.52,0.4-0.68,0.7c0.25,0.18,0.52,0.17,0.78,0.24c1.41,0.38,2.03,1.5,1.61,2.91c-0.3,1.02-0.81,1.94-1.47,2.78
			c-0.53,0.68-1.1,1.34-1.65,2.01c-0.08,0.03-0.15,0.09-0.09,0.17c0.06,0.08,0.14,0.03,0.21-0.01c0.77-0.23,1.53-0.49,2.37-0.32
			c1.17,0.23,1.9,1.35,1.67,2.38c-0.25,1.14-0.72,2.17-1.31,3.15c-0.94,1.55-2.12,2.91-3.32,4.25c-0.18,0.2-0.37,0.39-0.54,0.57
			c0.07,0.22,0.25,0.2,0.37,0.23c1.26,0.31,2.07,1.52,1.67,3.12c-0.29,1.15-0.74,2.22-1.33,3.24c-1.51,2.61-3.37,4.96-5.38,7.21
			c-1.14,1.28-2.4,2.45-3.58,3.69c-0.2,0.21-0.5,0.35-0.52,0.7c0.19,0.13,0.35,0,0.5-0.07c1.51-0.72,2.69,0.44,2.78,1.88
			c0.05,0.76-0.11,1.49-0.34,2.21c-0.76,2.36-2.14,4.36-3.61,6.31c-1.33,1.75-2.83,3.35-4.38,4.9c-0.1,0.1-0.25,0.17-0.25,0.35
			c0.23,0.15,0.51,0.15,0.76,0.22c1.31,0.39,2.19,1.47,1.7,3.05c-0.64,2.07-1.75,3.88-3.1,5.55c-0.93,1.15-1.94,2.22-3.01,3.23
			c-0.32,0.31-0.51,0.64-0.56,1.08c-0.08,0.72-0.28,1.41-0.51,2.1c-0.09,0.28-0.25,0.55-0.19,0.91c0.66-0.04,1.3-0.11,1.94,0.17
			c1.34,0.59,1.82,2.45,1.69,3.61c-0.28,2.36-1.1,4.54-2.09,6.68c-0.31,0.67-0.73,1.3-0.93,2.01c0.19,0.23,0.35,0.1,0.5,0.02
			c2.16-1.23,4.7,0.24,4.99,3.07c0.16,1.63-0.28,3.16-0.79,4.67c-0.48,1.43-1.06,2.81-1.8,4.13c-0.08,0.14-0.13,0.31-0.19,0.46
			c0.28,0.08,0.4-0.09,0.54-0.17c1.01-0.6,1.98-0.39,2.61,0.61c0.54,0.85,0.6,1.79,0.49,2.78c-0.25,2.17-0.88,4.23-1.73,6.22
			c-0.05,0.11-0.06,0.23-0.09,0.35c-0.08,0.08-0.15,0.18-0.04,0.28c0.03,0.02,0.14-0.05,0.21-0.08c0.24-0.11,0.5-0.21,0.73-0.35
			c0.61-0.36,1.23-0.35,1.9-0.17c1.99,0.52,2.67,2.35,2.51,3.96c-0.16,1.53-0.54,3.01-1.08,4.44c-0.21,0.56-0.43,1.11-0.67,1.75
			c0.57-0.08,1.04-0.19,1.56-0.07c2,0.46,2.94,2.61,2.62,4.62c-0.31,1.94-0.96,3.77-1.73,5.57c-0.38,0.88-0.77,1.76-1.16,2.64
			c-0.06,0.09-0.14,0.18-0.01,0.27c0.01,0.01,0.1-0.09,0.15-0.14c0.14-0.11,0.28-0.22,0.42-0.33c0.97-0.82,2.22-0.65,2.95,0.4
			c0.75,1.08,0.82,2.3,0.64,3.54c-0.34,2.45-1.14,4.77-2.03,7.07c-0.06,0.17-0.12,0.34-0.18,0.51c-0.15,0.24-0.47,0.47-0.01,0.72
			c0.1,0.28-0.17,0.35-0.29,0.49c-0.22,0.25-0.45,0.48-0.59,0.79c-1.35,3.12-2.97,6.11-4.6,9.09c-3,5.52-6.09,10.98-9.79,16.08
			c-0.3,0.42-0.3,0.71-0.1,1.13c0.67,1.41,1.31,2.84,1.97,4.26c0.09,0.2,0.13,0.47,0.42,0.54c0.2-0.16,0.26-0.4,0.36-0.6
			c1.46-2.87,2.86-5.77,4.38-8.6c1.98-3.71,4.21-7.28,6.15-11.02c1.51-2.91,2.97-5.84,4.03-8.95c0.32-0.93,0.61-1.89,0.61-2.89
			c0-1.1-0.51-1.4-1.5-0.91c-0.23,0.11-0.4,0.39-0.71,0.28c-0.1-0.13-0.02-0.27-0.02-0.41c0.32-0.36,0.61-0.75,0.96-1.06
			c1.02-0.9,2.44-0.69,3.14,0.47c0.61,1,0.79,2.11,0.69,3.28c-0.22,2.38-0.96,4.61-1.82,6.82c-0.06,0.14-0.11,0.28-0.08,0.43
			c-0.04,0.04-0.11,0.1-0.11,0.11c0.06,0.1,0.14,0.07,0.21,0.01c2.03-1,4.08,0.53,4.14,2.93c0.04,1.49-0.39,2.91-0.83,4.3
			c-0.6,1.86-1.39,3.64-2.22,5.41c-0.14,0.3-0.27,0.6-0.41,0.9c-0.04,0.07-0.1,0.15-0.02,0.22c0.08,0.06,0.16,0.01,0.2-0.07
			c0.25-0.1,0.51-0.18,0.75-0.29c1.48-0.65,4.01,0.32,3.85,2.78c-0.11,1.7-0.71,3.27-1.33,4.84c-0.33,0.84-0.72,1.65-1.08,2.48
			c-0.05,0.07-0.11,0.17-0.03,0.23c0.1,0.07,0.14-0.03,0.17-0.11c0.92-0.59,1.84-0.52,2.67,0.12c0.94,0.73,1.29,1.78,1.16,2.95
			c-0.08,0.77-0.3,1.52-0.54,2.26c-0.53,1.63-1.37,3.11-2.04,4.68c-0.04,0.06-0.08,0.12-0.11,0.18c-0.05,0.07-0.12,0.16-0.04,0.23
			c0.09,0.08,0.14-0.02,0.18-0.1c0.11-0.01,0.17-0.07,0.19-0.17c1.01-0.36,1.8-0.08,2.38,0.82c0.66,1.05,0.58,2.19,0.38,3.32
			c-0.31,1.73-1.08,3.31-1.78,4.9c-1.47,3.38-3.33,6.53-5.51,9.5c-0.33,0.45-0.29,0.73-0.02,1.17c2.82,4.52,5.83,8.91,9,13.18
			c2.42,3.26,4.91,6.46,7.64,9.46c2.84,3.12,5.36,6.48,7.87,9.85c0.68,0.92,1.22,1.93,1.75,2.95c0.07,0.13,0.14,0.27,0.18,0.41
			c0.12,0.42-0.1,0.67-0.51,0.56c-0.28-0.08-0.56-0.22-0.81-0.37c-2.06-1.24-4-2.67-5.83-4.23c-2.22-1.89-4.38-3.85-6.42-5.94
			c-2.31-2.37-4.34-4.98-6.3-7.65c-3.75-5.13-7.17-10.47-10.34-15.97c-0.38-0.67-0.81-1.03-1.6-1.2c-2.44-0.54-4.74-1.53-7.03-2.5
			c-4.1-1.73-8.12-3.64-12.07-5.69c-4.68-2.43-9.11-5.27-13.11-8.72c-1.46-1.26-2.85-2.59-3.84-4.28c-0.29-0.5-0.53-1.01-0.6-1.59
			c-0.08-0.77,0.22-1.33,0.86-1.75c0.72-0.48,1.52-0.67,2.34-0.71c0.08-0.29-0.1-0.36-0.25-0.44c-2.63-1.54-5.08-3.32-7.38-5.32
			c-1.98-1.72-3.84-3.56-5.3-5.76c-0.49-0.74-0.98-1.5-1.02-2.46c-0.03-0.76,0.26-1.27,0.88-1.64c0.28-0.17,0.55-0.33,0.84-0.5
			c-0.1-0.29-0.37-0.32-0.56-0.43c-2.98-1.7-5.57-3.88-7.87-6.41c-0.54-0.6-0.99-1.29-1.29-2.05c-0.45-1.13-0.21-1.79,0.82-2.41
			c0.36-0.22,0.74-0.39,1.14-0.54c-0.12-0.38-0.46-0.5-0.72-0.68c-1.95-1.42-3.76-3-5.31-4.86c-0.52-0.63-1-1.28-1.3-2.05
			c-0.36-0.92-0.17-1.46,0.7-1.95c0.23-0.13,0.48-0.24,0.73-0.34c0.25-0.1,0.5-0.17,0.76-0.26c0.01-0.32-0.28-0.38-0.46-0.5
			c-1.24-0.9-2.44-1.86-3.56-2.91c-1.31-1.24-2.5-2.61-3.36-4.21c-1.22-2.28-0.75-3.46,1.77-4.25c0.17-0.05,0.34-0.11,0.61-0.19
			c-1.35-1.14-2.36-2.46-3.15-3.94c-0.53-0.98-1.05-1.96-1.25-3.08c-0.19-1.08,0.03-1.62,0.94-2.21c1.01-0.66,2.1-0.86,3.27-0.61
			c0.5,0.11,1,0.22,1.49,0.32c0.17,0.03,0.37,0.12,0.46-0.11c0.08-0.22-0.09-0.33-0.23-0.43c-0.69-0.49-1.34-1.03-1.95-1.6
			c-2.76-2.62-5.24-5.46-7.08-8.83c-0.38-0.69-0.61-1.42-0.49-2.25c0.06-0.46,0.26-0.81,0.62-1.04c0.89-0.58,1.8-1.1,2.94-0.79
			c0.11,0.03,0.24,0,0.46,0c-0.64-0.76-1.23-1.46-1.83-2.15c-1.58-1.84-2.9-3.84-3.75-6.12c-0.31-0.85-0.53-1.72-0.33-2.64
			c0.12-0.56,0.41-0.99,0.89-1.3c0.93-0.59,1.9-1.04,3.05-0.77c0.08,0.02,0.18-0.02,0.31-0.04c-0.1-0.37-0.36-0.61-0.57-0.87
			c-1.48-1.86-2.62-3.88-2.98-6.28c-0.05-0.33-0.09-0.66-0.06-0.99c0.06-0.79,0.35-1.42,1.11-1.83c0.87-0.47,1.74-0.82,2.75-0.53
			c0.19,0.06,0.41,0.04,0.6,0.06c0.16-0.28-0.07-0.4-0.18-0.55c-1.7-2.26-3.02-4.7-3.75-7.44c-0.06-0.23-0.15-0.47-0.16-0.7
			c-0.05-1.01-0.27-2.11,0.61-2.88c1-0.87,2.18-1.4,3.57-1.15c0.47,0.08,0.93,0.18,1.44,0.29c0.03-0.42-0.26-0.63-0.42-0.88
			c-1.05-1.58-2.02-3.21-2.56-5.05c-0.22-0.76-0.35-1.51-0.14-2.3c0.13-0.49,0.35-0.88,0.78-1.16c0.91-0.59,1.84-1.02,2.96-0.64
			c0.22,0.08,0.47,0.08,0.71,0.11c0.08,0.07,0.18,0.12,0.27,0.02c0.02-0.02-0.05-0.13-0.08-0.19c-1.49-1.93-2.56-4.05-3.06-6.45
			c-0.18-0.86-0.26-1.72-0.17-2.59c0.04-0.37,0.13-0.73,0.41-0.97c0.98-0.85,2.03-1.49,3.42-1.21c0.55,0.11,1.1,0.25,1.62,0.41
			c0.22-0.26,0.05-0.46-0.02-0.62c-0.53-1.25-0.81-2.57-1.01-3.91c-0.11-0.7-0.04-1.38,0.16-2.05c0.33-1.08,1.99-1.84,3.3-1.61
			c1,0.18,1.85,0.67,2.73,1.12c0.08,0.06,0.14,0.19,0.26,0.09c0.11-0.1,0.01-0.19-0.04-0.28c-0.63-1.39-1.25-2.78-1.63-4.27
			c-0.29-1.15-0.35-2.31-0.31-3.48c0.03-0.82,0.38-1.44,1.11-1.92c1.18-0.77,2.34-0.75,3.57-0.24c0.28,0.12,0.54,0.25,0.81,0.38
			c0.07,0.02,0.18,0.08,0.21,0.06C20.21,88.97,20.16,88.87,20.08,88.78z M53.04,46.55c0.32-0.02,0.46-0.26,0.59-0.5
			c0.37-0.36,0.77-0.67,1.24-0.88c1.29-0.58,2.88,0.25,3.02,1.62c0.06,0.62,0.05,1.25-0.06,1.88c-0.28,1.49-0.81,2.89-1.39,4.28
			c-0.12,0.3-0.35,0.57-0.28,0.94c0.21,0.04,0.41,0.08,0.62,0.12c1.1,0.22,2.59,1.75,2.62,3.14c0.02,0.97-0.02,1.92-0.29,2.86
			c-0.29,0.99-0.65,1.94-1.1,2.86c-0.24,0.5-0.3,0.99-0.2,1.48c0.38,1.98,0.61,3.97,0.58,5.99c-0.01,0.39,0.1,0.79,0.15,1.19
			c0.34-0.08,0.44-0.26,0.52-0.45c0.59-1.32,1.19-2.63,1.79-3.94c0.08-0.17,0.11-0.32,0.09-0.52c-0.07-0.75-0.06-1.5-0.16-2.25
			c-0.28-2.05-0.36-4.13-0.44-6.19c-0.12-3.12-0.13-6.25-0.37-9.37c-0.14-1.86-0.35-3.71-0.83-5.5c-0.24-0.89-0.49-1.81-1.14-2.53
			c-0.34-0.37-0.71-0.6-1.25-0.59c-0.74,0.01-1.15,0.45-1.48,1.01c-0.9,1.51-1.35,3.21-2.03,4.81c-0.17,0.16-0.24,0.35-0.18,0.58
			c-0.09,0.03-0.1,0.06-0.04,0.07C53.02,46.63,53.03,46.58,53.04,46.55z M101.61,17.29c0.29-0.61,1.08-0.55,1.47-1.06
			c-0.27-0.1-0.51-0.2-0.79-0.2c-0.47,0.01-0.54,0.4-0.74,0.68c-0.18,0.25-0.16,0.41,0.08,0.58c-0.41,0.24-0.74,0.55-1.04,0.92
			c-1.13,1.36-2.29,2.7-3.45,4.04c-0.15,0.18-0.31,0.34-0.25,0.62c0.66-0.17,1.19-0.54,1.75-0.86c1.88-1.08,3.77-2.13,5.48-3.47
			c0.39-0.31,0.77-0.63,1.07-1.11c-0.64-0.34-1.24-0.47-1.88-0.39C102.73,17.11,102.17,17.21,101.61,17.29z M69.34,58.35
			c0.33-0.07,0.6-0.28,0.88-0.45c2.91-1.74,5.83-3.47,8.73-5.22c2.7-1.63,5.36-3.31,7.84-5.27c0.63-0.5,1.3-0.96,1.75-1.65
			c-1.23-0.73-2.4-0.88-3.62-0.48c-2.48,0.81-5.01,1.46-7.57,1.94c-0.52,0.1-0.86,0.32-1.15,0.74c-1.39,2.03-2.81,4.04-4.2,6.08
			c-0.94,1.39-1.95,2.74-2.77,4.21c-0.07,0.04-0.17,0.1-0.09,0.18C69.23,58.5,69.3,58.43,69.34,58.35z M59.4,108.41
			c0.07-0.05,0.15-0.09,0.21-0.16c1.69-1.96,3.46-3.84,5.28-5.69c3.11-3.15,6.26-6.26,9.4-9.38c2.52-2.5,4.92-5.11,6.94-8.05
			c0.67-0.97,1.3-1.96,1.64-3.1c0.15-0.51-0.05-0.86-0.56-0.98c-0.4-0.1-0.68,0.1-0.96,0.36c-1.19,1.1-2.36,2.23-3.6,3.28
			c-4.73,4.01-9.7,7.69-14.95,10.98c-0.99,0.62-1.98,1.24-3.02,1.89c0.69,0.78,1.14,1.63,1.21,2.61c0.08,0.99,0.06,1.98-0.12,2.97
			c-0.33,1.79-0.99,3.46-1.62,5.15c-0.05,0.09-0.13,0.18,0,0.25C59.27,108.55,59.35,108.46,59.4,108.41z M56.84,227.52
			c0.04,0.04,0.07,0.07,0.11,0.11c0.07-0.09,0.05-0.15-0.04-0.2c0.01-0.35-0.19-0.63-0.31-0.93c-0.58-1.38-1.21-2.75-1.77-4.14
			c-0.23-0.57-0.56-0.93-1.14-1.16c-1.96-0.77-3.83-1.74-5.67-2.76c-4.76-2.64-9.39-5.51-14.05-8.31c-4.15-2.49-8.35-4.9-12.8-6.83
			c-1.6-0.7-3.21-1.36-4.96-1.58c-0.36-0.05-0.71-0.15-1.01,0.18c0.17,0.6,0.54,1.07,0.89,1.55c1.46,1.97,3.24,3.62,5.12,5.17
			c0.41,0.34,0.76,0.75,1.36,0.82c1.02,0.12,1.98,0.48,2.93,0.85c3.05,1.21,5.97,2.71,8.79,4.38c6.03,3.56,11.98,7.27,18.16,10.57
			C53.89,226.04,55.32,226.87,56.84,227.52z M63.29,241.32c0.03-0.01,0.06-0.01,0.08-0.02c-0.01-0.01-0.03-0.02-0.03-0.02
			c-0.02,0.02-0.05,0.04-0.07,0.06c0.21-0.24,0.04-0.45-0.06-0.66c-1.42-2.96-2.84-5.91-4.24-8.87c-0.18-0.39-0.42-0.6-0.82-0.74
			c-2.23-0.81-4.44-1.69-6.56-2.77c-4.39-2.24-8.63-4.76-12.85-7.32c-3.57-2.17-7.1-4.41-10.86-6.24c-1.67-0.82-3.33-1.68-5.15-2.14
			c-0.48-0.12-0.96-0.27-1.49-0.08c0.14,0.59,0.49,1.01,0.82,1.42c1.82,2.28,3.83,4.38,6.08,6.26c0.61,0.51,1.22,0.87,2.05,0.99
			c2.49,0.34,4.7,1.45,6.84,2.68c6.67,3.85,13.11,8.05,19.41,12.48C58.75,237.98,61.01,239.67,63.29,241.32z M56.48,97.17
			c0.33-0.02,0.5-0.41,0.77-0.42c0.9-0.03,1.29-0.75,1.85-1.26c0.13-0.12,0.26-0.25,0.4-0.37c5.01-4.26,10.15-8.37,15.32-12.42
			c3.19-2.5,6.28-5.14,8.95-8.21c0.81-0.93,1.56-1.91,2.06-3.06c0.23-0.54,0.13-0.82-0.45-0.91c-1.15-0.17-2.29-0.1-3.2,0.75
			c-0.77,0.72-1.56,1.41-2.39,2.05c-5.64,4.37-11.82,7.82-18.38,10.61c-1.21,0.51-2.42,1.02-3.66,1.54c1.03,1.4,1.1,2.97,0.91,4.54
			c-0.25,2.1-1,4.08-1.82,6.02c-0.16,0.37-0.48,0.7-0.35,1.16c-0.05-0.06-0.11-0.06-0.13,0c-0.01,0.03,0.02,0.07,0.04,0.11
			C56.43,97.26,56.45,97.21,56.48,97.17z M13.33,177.79c0.13-0.09,0.21,0.01,0.3,0.08c0.44,0.36,0.87,0.74,1.41,0.96
			c1.93,0.78,3.74,1.8,5.54,2.83c4.29,2.43,8.41,5.16,12.53,7.86c3.92,2.57,7.94,5,11.63,7.9c0.1,0.08,0.2,0.12,0.32,0.1
			c0.1-0.14,0.04-0.29,0-0.43c-0.93-2.8-1.87-5.59-2.78-8.39c-0.12-0.35-0.3-0.53-0.64-0.67c-4.65-1.96-8.94-4.55-13.04-7.48
			c-3.89-2.77-7.75-5.59-11.66-8.34c-2.8-1.97-5.63-3.92-8.63-5.58c-0.82-0.45-1.65-0.86-2.59-1c-0.32-0.05-0.62-0.13-0.82,0.13
			c-0.2,0.25,0.06,0.52,0.15,0.75c0.57,1.33,1.34,2.56,2.14,3.76c1.76,2.63,3.6,5.19,6.06,7.23
			C13.34,177.57,13.43,177.66,13.33,177.79c-0.28,0.12-0.43-0.14-0.65-0.21c-0.11-0.03-0.23-0.12-0.31,0.02
			c-0.09,0.17,0.03,0.27,0.17,0.33c0.17,0.07,0.34,0.13,0.51,0.17C13.37,178.2,13.25,177.9,13.33,177.79z M41.05,185.18
			c0.03-0.14,0.06-0.2,0.05-0.25c-0.64-2.19-1.3-4.37-1.93-6.57c-0.1-0.36-0.31-0.56-0.6-0.74c-1.96-1.23-3.83-2.6-5.65-4.02
			c-4.78-3.72-9.31-7.75-14-11.59c-3.04-2.49-6.1-4.97-9.46-7.03c-1.38-0.85-2.77-1.7-4.33-2.19c-0.58-0.18-1.16-0.32-1.77-0.17
			c-0.56,0.14-0.75,0.41-0.66,0.98c0.05,0.36,0.13,0.71,0.23,1.06c0.76,2.54,2.12,4.76,3.54,6.96c0.56,0.86,1.2,1.55,2.23,1.79
			c0.17,0.04,0.32,0.16,0.49,0.23c2.45,1.16,4.72,2.64,6.97,4.14c7.92,5.3,15.6,10.94,23.43,16.36
			C40.07,184.49,40.55,184.83,41.05,185.18z M35.04,162.21c-0.04-0.38-0.04-0.57-0.07-0.74c-0.44-2.17-0.91-4.34-1.31-6.52
			c-0.11-0.62-0.38-1.02-0.86-1.39c-1.1-0.84-2.13-1.76-3.1-2.75c-1.43-1.47-2.88-2.91-4.29-4.38c-2.85-2.98-5.77-5.89-8.67-8.82
			c-1.52-1.54-3.13-2.99-4.82-4.35c-1.5-1.21-3.08-2.31-4.79-3.2c-0.7-0.37-1.44-0.59-2.25-0.52c-0.87,0.07-1.23,0.48-1.14,1.34
			c0.03,0.3,0.05,0.59,0.11,0.89c0.44,2.3,1.39,4.4,2.48,6.45c0.49,0.92,1,1.79,2.1,2.08c0.17,0.05,0.32,0.17,0.48,0.25
			c4.51,2.48,8.39,5.81,12.18,9.23c1.76,1.59,3.52,3.18,5.3,4.76c1.71,1.52,3.43,3.02,5.14,4.53
			C32.65,160.07,33.76,161.07,35.04,162.21z M33.61,116.2c0.18-0.28,0.31-0.47,0.43-0.66c3.24-5.25,6.39-10.56,9.45-15.91
			c2.62-4.57,5.33-9.08,7.7-13.79c1.44-2.85,2.71-5.78,3.38-8.92c0.16-0.74,0.3-1.48,0.04-2.22c-0.24-0.71-0.67-1.21-1.45-1.3
			c-0.77-0.09-1.32,0.11-1.76,0.88c-3.52,6.16-7.1,12.29-10.66,18.43c-2.26,3.9-4.44,7.86-7.16,11.47c-0.26,0.34-0.3,0.7-0.3,1.1
			c0.04,2.77,0.08,5.54,0.09,8.31C33.38,114.42,33.44,115.24,33.61,116.2z M43.56,179.77c0.32-0.04,0.39-0.31,0.53-0.49
			c1.64-2.15,3.32-4.27,5.06-6.33c3.02-3.57,6.09-7.1,9.01-10.77c2.47-3.1,4.94-6.2,6.89-9.67c1.15-2.05,2.16-4.16,2.74-6.45
			c0.17-0.66,0.19-1.31-0.08-1.94c-0.32-0.76-0.81-1.37-1.71-1.38c-0.92-0.01-1.82,0.14-2.34,1.03c-2.6,4.44-5.57,8.63-8.53,12.83
			c-3.22,4.57-6.55,9.04-10.26,13.22c-0.91,1.03-1.71,2.17-2.86,2.97c-0.31,0.22-0.28,0.45-0.19,0.78c0.44,1.53,0.84,3.07,1.26,4.6
			C43.21,178.71,43.29,179.27,43.56,179.77z M35.3,140.41c0.29-0.07,0.35-0.25,0.44-0.4c2.56-4.54,5.61-8.76,8.44-13.12
			c3.94-6.07,8.05-12.05,11.53-18.42c1.28-2.35,2.37-4.8,2.81-7.47c0.13-0.78,0.16-1.56-0.1-2.32c-0.21-0.59-0.23-0.6-0.92-0.48
			c-0.08,0.01-0.18,0.06-0.26-0.09c-0.13-0.17,0.2-0.33,0.09-0.54c-0.92-0.1-1.18,0.03-1.58,0.8c-1.02,2.01-2.13,3.97-3.31,5.9
			c-3.07,5.03-6.34,9.94-9.53,14.89c-2.67,4.14-5.28,8.33-8.44,12.13c-0.15,0.18-0.16,0.36-0.14,0.58c0.2,1.75,0.38,3.51,0.58,5.26
			C35.03,138.22,35.17,139.31,35.3,140.41z M38.06,174.7c0-0.24,0.02-0.33,0-0.42c-0.71-2.82-1.44-5.65-2.13-8.48
			c-0.09-0.37-0.28-0.55-0.57-0.74c-1.03-0.67-2.07-1.34-3.07-2.07c-4.3-3.14-8.21-6.75-12.21-10.24c-2.49-2.18-4.96-4.36-7.64-6.31
			c-2-1.45-4.04-2.82-6.27-3.91c-0.6-0.29-1.22-0.52-1.89-0.56c-0.74-0.05-1.06,0.24-1.08,0.97c-0.01,0.33,0.01,0.66,0.05,0.99
			c0.27,2.05,1.2,3.82,2.26,5.55c0.19,0.31,0.45,0.46,0.77,0.57c1.46,0.49,2.81,1.23,4.13,2.01c3.61,2.14,6.86,4.77,10.07,7.44
			c2.86,2.38,5.69,4.81,8.5,7.25c2.09,1.81,4.24,3.55,6.26,5.43C36.14,173,37.04,173.79,38.06,174.7z M39.05,161.98
			c0.43-0.65,0.78-1.19,1.14-1.73c2.73-4.11,5.79-7.97,8.64-11.99c3.92-5.54,7.94-11.03,11.22-16.99c0.94-1.71,1.81-3.48,2.28-5.39
			c0.38-1.54-0.29-2.33-1.46-2.63c-0.37-0.1-0.78-0.03-1.16-0.07c-0.46-0.05-0.7,0.16-0.89,0.56c-0.61,1.31-1.35,2.55-2.12,3.78
			c-4.04,6.45-8.51,12.61-12.89,18.83c-1.75,2.48-3.7,4.8-5.69,7.09c-0.5,0.58-0.75,1.11-0.49,1.93c0.31,0.99,0.4,2.06,0.62,3.09
			C38.49,159.58,38.66,160.73,39.05,161.98z M39.83,240.12c0.29,0.82,0.84,1.45,1.41,2.07c1.94,2.11,4.18,3.88,6.47,5.58
			c4.41,3.27,9.23,5.86,14.07,8.41c4.12,2.17,8.29,4.25,12.56,6.12c0.12,0.05,0.25,0.18,0.4-0.02c-0.75-1.32-1.51-2.65-2.26-3.99
			c-1.02-1.84-2.03-3.68-3.04-5.53c-0.12-0.21-0.22-0.44-0.53-0.4c-0.7,0.09-1.28-0.25-1.88-0.52c-3.3-1.47-6.42-3.28-9.56-5.05
			c-2.93-1.65-5.84-3.36-8.94-4.68c-2.27-0.97-4.57-1.83-7.02-2.2C40.93,239.82,40.38,239.75,39.83,240.12z M47,191.15
			c0.3-0.41,0.5-0.66,0.67-0.93c2.42-3.78,5.04-7.4,7.76-10.96c3.67-4.8,7.15-9.74,10.21-14.95c1.33-2.26,2.48-4.61,3.18-7.15
			c0.14-0.5,0.21-1,0.14-1.52c-0.05-0.36-0.23-0.66-0.64-0.62c-0.72,0.07-1.44,0.2-1.86,0.91c-1.54,2.62-3.37,5.05-5.22,7.45
			c-2.16,2.8-4.45,5.51-6.75,8.2c-2.62,3.06-5.29,6.07-8.19,8.87c-0.5,0.48-1,0.96-1.53,1.4c-0.41,0.34-0.48,0.69-0.33,1.18
			C45.28,185.67,46.1,188.31,47,191.15z M49.18,208.75c0.01-0.12,0.04-0.22,0.01-0.29c-0.86-2.12-1.64-4.27-2.38-6.43
			c-0.19-0.55-0.53-0.83-1.02-1.04c-2.05-0.89-4-1.95-5.93-3.06c-4.38-2.52-8.58-5.33-12.8-8.1c-4.05-2.65-8.09-5.33-12.4-7.55
			c-1.47-0.76-2.97-1.46-4.59-1.84c-0.44-0.1-0.88-0.23-1.33-0.15c-0.53,0.1-0.76,0.23-0.6,0.84c0.52,2.03,1.35,3.91,2.64,5.58
			c0.29,0.37,0.62,0.6,1.1,0.66c1.29,0.17,2.52,0.55,3.73,1c3.34,1.25,6.46,2.93,9.47,4.82c4.54,2.84,9.03,5.75,13.55,8.62
			c3.12,1.98,6.28,3.9,9.27,6.08C48.31,208.18,48.66,208.56,49.18,208.75z M52.98,218.35c0.07-0.12,0.06-0.23,0.01-0.35
			c-0.71-1.75-1.43-3.51-2.13-5.27c-0.13-0.34-0.34-0.5-0.68-0.64c-2.32-0.91-4.62-1.88-6.8-3.1c-3.86-2.16-7.55-4.6-11.25-7.01
			c-3.8-2.48-7.51-5.11-11.44-7.39c-2.52-1.47-5.08-2.86-7.87-3.79c-0.8-0.27-1.63-0.43-2.48-0.36c-0.48,0.04-0.6,0.19-0.44,0.64
			c0.14,0.39,0.32,0.78,0.53,1.15c1.52,2.72,3.67,4.89,5.97,6.94c0.21,0.19,0.46,0.25,0.74,0.3c1.04,0.16,2.05,0.46,3.04,0.82
			c3.4,1.23,6.65,2.81,9.79,4.59c7.49,4.22,14.88,8.62,22.23,13.09C52.45,218.1,52.67,218.32,52.98,218.35z M68.18,250.75
			c0.03-0.1,0.05-0.14,0.04-0.15c-1.1-2.17-2.2-4.34-3.3-6.51c-0.14-0.27-0.33-0.38-0.63-0.43c-0.66-0.11-1.26-0.39-1.85-0.7
			c-2.13-1.12-4.23-2.28-6.29-3.53c-4.88-2.97-9.54-6.29-14.35-9.36c-2.89-1.85-5.72-3.78-8.85-5.22c-0.93-0.43-1.87-0.82-2.9-0.97
			c-0.37-0.05-0.77-0.19-1,0.12c-0.22,0.29,0.1,0.61,0.26,0.88c1.21,2.18,2.89,3.99,4.64,5.73c2.54,2.52,5.32,4.76,8.27,6.8
			c0.25,0.17,0.49,0.32,0.8,0.39c2.85,0.69,5.53,1.82,8.16,3.09c2.6,1.25,5.08,2.74,7.59,4.15c3.01,1.69,6.03,3.38,8.83,5.43
			C67.77,250.58,67.92,250.75,68.18,250.75z M36.91,151.4c0.33-0.18,0.39-0.39,0.5-0.57c0.9-1.49,1.78-3,2.72-4.47
			c2.59-4.06,5.38-7.97,8.07-11.97c2.63-3.91,5.37-7.76,7.76-11.83c1.29-2.21,2.45-4.48,3.12-6.97c0.22-0.81,0.39-1.63,0.44-2.47
			c0.04-0.68-0.55-1.31-1.15-1.19c-0.58,0.11-1.16,0.28-1.45,0.93c-0.23,0.52-0.54,1.01-0.84,1.49
			c-6.23,9.86-12.57,19.64-20.01,28.65c-0.27,0.33-0.38,0.62-0.28,1.06c0.15,0.64,0.18,1.3,0.28,1.95
			C36.34,147.77,36.62,149.54,36.91,151.4z M34.2,128.28c0.77-1.42,1.44-2.76,2.2-4.05c3.1-5.29,6.48-10.41,9.7-15.63
			c2.69-4.34,5.48-8.62,7.83-13.17c1.05-2.03,1.99-4.12,2.47-6.37c0.19-0.91,0.34-1.8,0.07-2.75c-0.21-0.74-0.8-0.84-1.34-0.99
			c-0.57-0.16-0.74,0.39-0.93,0.79c-1.01,2.22-2.17,4.36-3.39,6.47c-3.13,5.41-6.39,10.74-9.7,16.04c-2.31,3.7-4.52,7.46-7.19,10.92
			c-0.26,0.34-0.32,0.7-0.3,1.1c0.08,1.71,0.11,3.42,0.27,5.12C33.97,126.57,33.82,127.4,34.2,128.28z M33.17,100.95
			c0.21,0.08,0.24-0.03,0.28-0.1c0.93-1.62,1.87-3.23,2.79-4.85c4.27-7.54,8.53-15.09,12.8-22.63c2.06-3.64,4.3-7.18,6.23-10.89
			c0.79-1.52,1.52-3.06,1.84-4.78c0.22-1.14-0.27-1.92-1.04-2.61c-0.34-0.31-0.49-0.27-0.75,0.19c-0.48,0.83-0.93,1.68-1.4,2.52
			c-1.84,3.28-3.83,6.47-5.74,9.7c-2.72,4.61-5.34,9.27-7.99,13.92c-2.2,3.87-4.69,7.56-6.71,11.54c-0.2,0.39-0.32,0.75-0.32,1.19
			c0.02,1.87,0.01,3.74,0.01,5.6C33.17,100.17,33.17,100.58,33.17,100.95z M33.18,89.7c0.16-0.09,0.2-0.1,0.21-0.12
			c0.73-2.07,1.66-4.06,2.62-6.03c2.96-6.12,6.43-11.97,9.93-17.79c2.42-4.02,4.95-7.97,7.29-12.04c1.16-2.01,2.18-4.09,2.63-6.39
			c0.12-0.64-0.08-0.94-0.71-0.93c-1.21,0.04-2.24,0.54-2.82,1.62c-1.03,1.91-2.07,3.8-3.22,5.64c-4.88,7.8-10.01,15.42-15.37,22.9
			c-0.18,0.25-0.35,0.46-0.36,0.8c-0.01,0.9-0.06,1.8-0.08,2.7c-0.05,2.29,0.08,4.57-0.1,6.86C33.12,87.81,33.18,88.71,33.18,89.7z
			 M50.81,201.84c0.11-0.18,0.23-0.35,0.34-0.53c3.42-5.91,7.12-11.65,10.93-17.31c2.67-3.97,5.22-8.01,7.32-12.32
			c0.66-1.36,1.23-2.74,1.65-4.19c0.24-0.84-0.11-1.35-0.98-1.37c-1.12-0.03-2.01,0.52-2.53,1.43c-1.24,2.16-2.45,4.35-3.83,6.43
			c-4.57,6.93-9.41,13.66-15.29,19.57c-0.36,0.36-0.4,0.66-0.23,1.11c0.79,2.21,1.56,4.43,2.33,6.64
			C50.56,201.48,50.58,201.7,50.81,201.84z M54.81,84.84c1.12-0.02,1.78-0.65,2.4-1.35c0.22-0.25,0.49-0.43,0.78-0.61
			c4.19-2.65,8.43-5.22,12.68-7.78c4.07-2.45,8.13-4.9,11.67-8.12c0.94-0.86,1.82-1.76,2.44-2.87c0.41-0.73,0.34-0.87-0.46-1.17
			c-0.7-0.26-1.3-0.19-1.94,0.25c-3.03,2.09-6.23,3.87-9.6,5.33c-3.95,1.71-8.06,2.96-12.19,4.14c-0.42,0.12-0.67,0.31-0.86,0.68
			c-0.66,1.25-1.36,2.48-1.94,3.77c-0.09,0.19-0.18,0.5-0.36,0.48c-0.48-0.06-0.51,0.27-0.55,0.56c-0.22,1.62-0.75,3.15-1.29,4.68
			C55.35,83.48,55.08,84.15,54.81,84.84z M59.06,222.46c0.47-0.65,0.69-1.4,1.03-2.09c1.7-3.49,3.61-6.85,5.54-10.22
			c2.72-4.74,5.51-9.45,7.76-14.44c0.83-1.83,1.6-3.69,2.12-5.64c0.15-0.57,0.37-1.13,0.19-1.76c-0.22-0.78-0.51-0.95-1.22-0.58
			c-0.96,0.49-1.61,1.23-2.14,2.2c-2.44,4.45-5.15,8.75-7.93,13c-2.53,3.87-5.38,7.52-8.12,11.24c-0.38,0.52-0.5,0.93-0.23,1.54
			c0.88,2,1.71,4.03,2.56,6.04C58.72,222.01,58.8,222.27,59.06,222.46z M30.99,138.36c0.25-0.03,0.2-0.21,0.18-0.34
			c-0.33-2.25-0.47-4.52-0.69-6.79c-0.03-0.34-0.16-0.55-0.42-0.74c-0.6-0.46-1.12-1.01-1.61-1.57c-1.93-2.18-3.86-4.37-5.77-6.56
			c-2.47-2.83-4.8-5.77-7.32-8.55c-1.46-1.61-3.02-3.1-4.82-4.32c-0.42-0.29-0.87-0.53-1.36-0.7c-0.88-0.29-1.51,0.22-1.48,1.08
			c0.08,2.53,0.8,4.84,2.15,6.97c0.29,0.45,0.56,0.9,1.05,1.21c2.07,1.3,3.88,2.93,5.64,4.62c2.82,2.71,5.43,5.63,8.11,8.47
			c0.91,0.96,1.77,1.96,2.64,2.96C28.53,135.51,29.76,136.94,30.99,138.36z M54.51,211.96c0.32-0.13,0.35-0.33,0.43-0.48
			c1.43-2.71,2.9-5.4,4.53-8c3.11-4.97,6.36-9.85,9.32-14.91c1.73-2.96,3.39-5.96,4.61-9.18c0.22-0.59,0.41-1.2,0.55-1.81
			c0.16-0.69-0.19-1.39-0.72-1.58c-0.66-0.24-1.38,0.03-1.74,0.68c-0.33,0.61-0.64,1.22-0.98,1.83c-2.83,5.07-6.1,9.86-9.44,14.61
			c-2.13,3.02-4.5,5.85-6.92,8.64c-0.73,0.83-1.33,1.79-2.29,2.41c-0.31,0.2-0.15,0.41-0.07,0.62
			C52.68,207.17,53.59,209.55,54.51,211.96z M41.15,171.13c0.37-0.3,0.51-0.65,0.7-0.94c0.67-1.04,1.31-2.09,1.99-3.12
			c3.42-5.24,7.2-10.22,10.75-15.37c2.73-3.96,5.56-7.85,7.88-12.08c1.14-2.09,2.2-4.21,2.75-6.55c0.09-0.36,0.12-0.72,0.07-1.07
			c-0.09-0.57-0.55-1-1.08-1.06c-0.64-0.07-0.81,0.03-1.12,0.77c-0.52,1.25-1.19,2.43-1.86,3.6c-2.03,3.55-4.31,6.95-6.69,10.28
			c-4.58,6.4-9.14,12.82-14.66,18.48c-0.23,0.24-0.33,0.46-0.23,0.79c0.17,0.61,0.29,1.23,0.43,1.84
			C40.42,168.16,40.78,169.61,41.15,171.13z M32.8,150.07c-0.39-2.47-0.77-4.89-1.06-7.32c-0.06-0.52-0.26-0.93-0.71-1.27
			c-2.03-1.56-3.91-3.28-5.7-5.11c-0.8-0.82-1.59-1.64-2.36-2.48c-1.58-1.73-3.2-3.43-4.78-5.16c-2.17-2.38-4.4-4.69-6.89-6.74
			c-0.97-0.8-1.99-1.55-3.1-2.16c-0.48-0.26-0.98-0.45-1.55-0.38c-0.55,0.07-0.86,0.39-0.9,0.95c-0.02,0.24,0.01,0.47,0.05,0.71
			c0.24,1.44,0.8,2.76,1.35,4.09c0.52,1.25,1.27,2.1,2.5,2.75c2.97,1.57,5.48,3.79,7.87,6.13c3.03,2.96,6.03,5.97,9,9
			c2.08,2.12,4.14,4.27,5.87,6.71C32.48,149.91,32.53,150.07,32.8,150.07z M30.21,127.4c0.18-0.41-0.09-0.73-0.09-1.09
			c-0.05-2.16-0.18-4.33-0.18-6.49c0-1-0.12-1.82-0.99-2.43c-0.21-0.15-0.34-0.42-0.52-0.62c-2.96-3.35-5.82-6.79-8.68-10.24
			c-1.38-1.66-2.73-3.37-4.43-4.73c-0.72-0.58-1.42-1.21-2.36-1.44c-0.68-0.17-1.1,0.04-1.37,0.66c-0.12,0.28-0.16,0.58-0.17,0.88
			c-0.04,1.27,0.09,2.51,0.42,3.75c0.13,0.49,0.33,0.86,0.77,1.14c0.99,0.63,1.89,1.38,2.75,2.19c2.89,2.73,5.49,5.72,7.95,8.84
			c2.24,2.83,4.26,5.82,6.28,8.81C29.77,126.9,29.9,127.22,30.21,127.4z M29.91,114.9c0-2.83-0.03-5.47,0.02-8.12
			c0.01-0.76-0.17-1.33-0.77-1.79c-0.33-0.26-0.57-0.61-0.82-0.95c-2.32-3.13-4.57-6.33-7.07-9.32c-0.89-1.06-1.77-2.13-2.94-2.9
			c-1.16-0.76-1.95-0.4-2.14,0.98c-0.01,0.09-0.01,0.18-0.01,0.27c-0.15,2.2,0.35,4.29,1.15,6.32c0.11,0.29,0.29,0.52,0.53,0.72
			c1.22,1.03,2.3,2.19,3.37,3.37c2.97,3.28,5.66,6.76,8,10.52C29.39,114.27,29.52,114.58,29.91,114.9z M51.19,43.9
			c-0.66,0.32-1.09,0.65-1.51,0.97c-1.85,1.41-3.36,3.17-4.79,4.98c-4.45,5.63-8.1,11.77-11.45,18.1c-0.58,1.1-0.72,2.19-0.25,3.35
			c0.03,0.08,0.07,0.19,0.04,0.25c-0.47,0.84,0.18,1.67-0.14,2.69c0.43-0.31,0.52-0.57,0.64-0.79c0.67-1.28,1.42-2.51,2.2-3.72
			c2.47-3.81,4.98-7.59,7.42-11.41c2.39-3.72,4.73-7.47,6.67-11.45C50.46,45.97,50.88,45.08,51.19,43.9z M66.4,238.29
			c0.18-0.29,0.26-0.41,0.33-0.54c2.24-4.12,4.51-8.21,6.93-12.23c2.19-3.63,4.3-7.3,5.94-11.21c0.47-1.11,0.92-2.22,1.12-3.41
			c0.12-0.73-0.21-1.32-0.88-1.43c-0.8-0.14-1.39-0.09-1.64,0.65c-0.26,0.79-0.67,1.54-1.04,2.3c-2.41,4.87-5.09,9.6-8.02,14.18
			c-1.49,2.32-3.07,4.59-4.88,6.68c-0.17,0.19-0.21,0.32-0.1,0.54C64.89,235.27,65.61,236.71,66.4,238.29z M62.29,63.89
			c0.17-0.13,0.2-0.15,0.22-0.17c1.44-2.74,2.88-5.49,4.45-8.16c0.2-0.33,0.19-0.68,0.14-1.04c-0.23-1.84-0.44-3.69-0.66-5.53
			c-0.37-3.06-0.69-6.14-1.46-9.14c-0.22-0.87-0.45-1.75-0.87-2.56c-0.44-0.84-1.27-0.99-1.81-0.27c-1.11,1.51-1.46,3.26-1.49,5.1
			c0,0.17,0.1,0.35,0.14,0.52c0.85,2.99,1.04,6.08,1.25,9.16c0.1,1.44,0,2.89,0.1,4.33c0.15,2.1,0.21,4.2-0.01,6.3
			C62.25,62.87,62.29,63.32,62.29,63.89z M62.2,69.31c0.24,0.1,0.41-0.05,0.59-0.13c4.59-2.17,9.21-4.28,13.68-6.68
			c2.84-1.52,5.6-3.14,8.15-5.12c0.72-0.55,1.37-1.17,2-1.82c0.2-0.21,0.26-0.36-0.01-0.58c-0.94-0.75-3-0.87-4-0.2
			c-1.84,1.25-3.76,2.36-5.75,3.35c-3.2,1.6-6.49,2.99-9.81,4.3c-0.58,0.23-1.02,0.54-1.35,1.1c-1.01,1.67-2.07,3.31-3.11,4.97
			C62.43,68.75,62.21,68.97,62.2,69.31z M61.6,116.54c0.89-0.72,1.52-1.56,2.25-2.32c2.35-2.41,4.7-4.81,7.01-7.26
			c1.3-1.38,2.43-2.9,3.41-4.52c0.58-0.95,1.04-1.96,1.29-3.06c0.11-0.48-0.14-0.82-0.61-0.74c-0.88,0.14-1.79,0.29-2.51,0.89
			c-0.51,0.42-0.99,0.88-1.46,1.34c-3.1,3.02-6.3,5.92-9.66,8.64c-0.62,0.5-1.29,0.94-1.87,1.63c1.27,0.24,1.81,1.1,2.03,2.18
			c0.15,0.76,0.2,1.55,0.07,2.33C61.51,115.92,61.47,116.18,61.6,116.54z M70.28,245.8c0.41-0.43,0.58-0.91,0.81-1.36
			c1.38-2.74,2.84-5.43,4.37-8.08c1.71-2.97,3.45-5.91,4.92-9.01c0.46-0.98,0.9-1.97,1.22-3c0.14-0.44,0.03-0.59-0.41-0.67
			c-0.99-0.17-2.58,0.58-3.09,1.45c-2.15,3.75-4.54,7.35-7.04,10.89c-1.02,1.45-2.05,2.89-3.09,4.32c-0.18,0.25-0.35,0.45-0.16,0.8
			C68.65,242.67,69.45,244.22,70.28,245.8z M29.88,102.65c0.07-0.25,0.12-0.32,0.12-0.4c-0.05-1.56,0.2-3.12,0.13-4.68
			c-0.01-0.21-0.02-0.42,0.01-0.63c0.23-1.49,0.13-3,0.22-4.49c0.02-0.29-0.07-0.51-0.3-0.7c-0.97-0.82-1.69-1.86-2.46-2.86
			c-1.21-1.57-2.46-3.11-4.08-4.29c-1.13-0.82-1.93-0.56-2.37,0.77c-0.05,0.14-0.07,0.29-0.1,0.44c-0.23,1.36,0.08,2.67,0.38,3.99
			c0.08,0.34,0.24,0.6,0.48,0.84c1.77,1.73,3.2,3.73,4.49,5.84C27.58,98.45,28.67,100.48,29.88,102.65z M69,51.75
			c0.16,0.05,0.21-0.02,0.26-0.1c1-1.61,1.99-3.22,3-4.83c0.14-0.22,0.23-0.43,0.18-0.68c-0.13-0.78-0.05-1.56-0.1-2.34
			c-0.15-2.18-0.31-4.37-0.47-6.55c-0.11-1.5-0.25-2.99-0.75-4.42c-0.13-0.37-0.27-0.74-0.56-1.02c-0.43-0.42-0.75-0.4-1.11,0.08
			c-0.11,0.14-0.21,0.3-0.29,0.45c-0.65,1.2-1.06,2.48-1.3,3.82c-0.19,1.02-0.15,2.01,0.14,3.02c0.66,2.35,0.86,4.78,0.91,7.21
			C68.95,48.18,68.97,49.98,69,51.75z M73.7,251.96c0.36-0.22,0.43-0.53,0.57-0.79c1.08-1.98,2.16-3.96,3.35-5.87
			c1.87-2.98,3.79-5.93,5.3-9.12c0.31-0.65,0.57-1.32,0.78-2.01c0.13-0.42,0.04-0.79-0.28-1.06c-0.3-0.26-0.69-0.25-1.03-0.1
			c-0.61,0.27-1.1,0.66-1.42,1.3c-1.39,2.81-3.06,5.45-4.87,8c-1.34,1.89-2.69,3.76-4.04,5.64c-0.19,0.26-0.34,0.48-0.15,0.81
			C72.5,249.81,73.09,250.88,73.7,251.96z M74.75,43c1.1-1.52,2.08-2.89,3.07-4.25c0.19-0.26,0.22-0.51,0.21-0.83
			c-0.06-2.31-0.31-4.61-0.61-6.9c-0.17-1.28-0.34-2.56-0.72-3.79c-0.11-0.37-0.21-0.79-0.7-0.85c-0.43-0.05-0.62,0.28-0.83,0.59
			c-0.74,1.08-1.23,2.26-1.56,3.53c-0.11,0.4-0.08,0.76,0.06,1.14c0.77,2.05,1.02,4.19,1.12,6.36C74.86,39.6,74.8,41.21,74.75,43z
			 M79.52,43.65c0.23,0.06,0.37,0,0.5-0.06c3.13-1.37,6.31-2.64,9.38-4.16c1.53-0.76,3.06-1.55,4.39-2.64
			c0.32-0.26,0.82-0.54,0.76-0.94c-0.09-0.5-0.7-0.6-1.14-0.74c-0.74-0.24-1.47-0.36-2.22,0.12c-0.63,0.4-1.35,0.65-2.04,0.93
			c-1.75,0.7-3.44,1.57-5.28,2.03c-0.28,0.07-0.39,0.25-0.54,0.43c-1.19,1.5-2.38,3.01-3.57,4.51
			C79.64,43.28,79.54,43.43,79.52,43.65z M80.34,35.22c0.29-0.02,0.36-0.16,0.45-0.27c0.71-0.85,1.38-1.75,2.15-2.54
			c0.49-0.5,0.64-1.01,0.64-1.68c-0.01-1.98-0.01-3.96-0.14-5.94c-0.06-0.9-0.16-1.79-0.46-2.65c-0.27-0.78-0.88-0.88-1.42-0.25
			c-0.14,0.16-0.25,0.34-0.36,0.51c-0.57,0.89-1.01,1.83-1.38,2.82c-0.21,0.58-0.23,1.12-0.07,1.74c0.38,1.48,0.56,2.99,0.62,4.53
			C80.4,32.73,80.32,33.96,80.34,35.22z M77.36,258.06c1.32-3.49,3.31-6.55,4.98-9.78c0.68-1.3,1.44-2.58,1.8-4.03
			c0.09-0.38,0.34-0.85,0-1.09c-0.4-0.28-0.86,0.08-1.25,0.28c-0.14,0.07-0.23,0.27-0.31,0.43c-1.89,3.4-4.19,6.52-6.67,9.5
			c-0.83,1-0.84,1.02-0.16,2.12C76.26,256.31,76.67,257.22,77.36,258.06z M85.77,29.16c1.58-1.45,2.91-2.95,4.32-4.38
			c0.14-0.14,0.18-0.29,0.12-0.49c-0.41-1.48-0.41-3.02-0.67-4.52c-0.13-0.74-0.21-1.49-0.54-2.18c-0.45-0.96-1.02-1.03-1.67-0.2
			c-0.69,0.88-1.15,1.89-1.58,2.92c-0.08,0.2-0.09,0.41-0.02,0.62c0.62,1.82,0.38,3.68,0.32,5.54
			C86.01,27.33,85.85,28.17,85.77,29.16z M64.36,123.46c0.47-0.52,0.82-1.12,1.19-1.69c1.14-1.76,2.28-3.53,3.19-5.43
			c0.33-0.69,0.02-1.13-0.75-1.14c-0.09,0-0.18,0.02-0.27,0.03c-0.56,0.11-1.09,0.29-1.56,0.66c-1.76,1.38-3.39,2.95-5.46,3.89
			c-0.1,0.04-0.19,0.16-0.23,0.26c-0.3,0.73-0.59,1.46-0.94,2.32C61.47,121.66,63.07,121.9,64.36,123.46z M30.33,89.63
			c0.18-0.52,0.26-0.99,0.29-1.47c0.08-1.77,0.18-3.53,0.3-5.3c0.02-0.33-0.03-0.57-0.27-0.8c-0.71-0.69-1.38-1.43-2.11-2.09
			c-0.57-0.51-1.17-1.04-2.02-1.07c-0.65-0.03-0.87,0.06-1.11,0.66c-0.22,0.54-0.26,1.1-0.17,1.68c0.08,0.49,0.01,1,0.46,1.4
			c1.51,1.37,2.53,3.1,3.49,4.87C29.57,88.22,29.95,88.92,30.33,89.63z M87.26,34.18c0.37-0.19,0.66-0.32,0.93-0.48
			c2.32-1.39,4.63-2.78,6.95-4.18c1.59-0.96,3.21-1.89,4.7-3.01c0.33-0.25,0.65-0.49,0.88-0.89c-0.66-0.29-1.29-0.64-1.92-0.34
			c-1.88,0.89-3.82,1.61-5.79,2.24c-0.33,0.11-0.57,0.28-0.8,0.54c-1.51,1.78-3.04,3.55-4.57,5.33
			C87.47,33.57,87.29,33.76,87.26,34.18z M91.54,23.22c0.18-0.08,0.22-0.09,0.24-0.11c1.52-1.45,3.03-2.91,4.55-4.37
			c0.16-0.16,0.22-0.32,0.16-0.56c-0.17-0.67-0.33-1.34-0.44-2.01c-0.16-0.93-0.74-1.44-1.59-1.78c-0.54-0.22-0.96-0.12-1.3,0.25
			c-0.85,0.93-1.45,2.06-1.57,3.28C91.41,19.64,91.54,21.38,91.54,23.22z M52.57,72.56c1.23-0.39,2.3-0.35,3.23,0.57
			c0.85,0.84,1.22,1.87,1.25,3.13c0.3-0.42,0.31-0.82,0.46-1.18c0.22-0.51,0.21-1.01,0.08-1.57c-0.42-1.84-0.57-3.73-0.74-5.6
			c-0.07-0.71-0.13-1.43-0.19-2.14C55.25,68.06,53.86,70.26,52.57,72.56z M110,6.09c-0.68-0.03-0.77-0.04-1.22,0.17
			c-2.85,1.32-4.62,3.55-5.5,6.53c-0.04,0.15-0.08,0.3,0.11,0.37c0.13,0.05,0.27,0.16,0.42,0.04c0.12-0.09,0.22-0.2,0.33-0.31
			c1.4-1.33,2.66-2.78,3.95-4.21C108.78,7.91,109.5,7.14,110,6.09z M31.06,79.45c0.05-2.36,0.56-4.65,0.84-7.06
			c-0.5,0.18-0.88,0.29-1.23,0.44c-0.27,0.12-0.53,0.29-0.77,0.46c-1.12,0.78-1.61,2.17-1.22,3.41c0.03,0.08,0.07,0.17,0.13,0.23
			C29.63,77.69,30.23,78.63,31.06,79.45z M100.6,9.52c-0.32,0.05-0.48,0.18-0.65,0.3c-0.87,0.67-1.44,1.58-2.06,2.47
			c-0.36,0.52-0.46,0.98-0.16,1.56c0.14,0.28,0.13,0.64,0.19,0.96c0.14,0.66,0.08,1.34,0.12,2.08c0.62-0.33,0.97-0.79,1.41-1.13
			c0.18-0.14,0.25-0.33,0.29-0.54C100.13,13.35,100.49,11.48,100.6,9.52z M96.72,22.85c-0.12,0.02-0.21,0.08-0.23,0.2
			c-0.01,0.04,0.05,0.12,0.07,0.12c0.11-0.02,0.23-0.05,0.24-0.19C96.79,22.94,96.74,22.89,96.72,22.85z M64.76,142.28
			c-0.02-0.03-0.04-0.06-0.06-0.1c-0.02,0.02-0.06,0.04-0.05,0.05c0.01,0.04,0.04,0.07,0.05,0.11
			C64.72,142.33,64.73,142.31,64.76,142.28z M74.11,98.05c0.02-0.02,0.04-0.04,0.06-0.06c-0.02-0.02-0.04-0.04-0.06-0.06
			c-0.02,0.03-0.04,0.06-0.06,0.09C74.07,98.03,74.09,98.04,74.11,98.05z M87.12,34.24c0.02-0.02,0.04-0.04,0.06-0.06
			c-0.04-0.02-0.07-0.05-0.11-0.05c-0.01,0-0.04,0.03-0.06,0.05C87.05,34.2,87.09,34.22,87.12,34.24z M68.32,250.85
			c-0.02,0.02-0.05,0.03-0.05,0.05c0,0.02,0.02,0.04,0.04,0.06c0.02-0.02,0.05-0.03,0.05-0.05
			C68.36,250.89,68.33,250.87,68.32,250.85z"/>
		<path class="st3" d="M76.34,198.04c0,0.14-0.08,0.28,0.02,0.41l0.01-0.03c-0.17-0.05-0.22,0.03-0.19,0.19l0.01-0.01
			c-0.16-0.04-0.18,0.07-0.2,0.19l0.02-0.01c-0.46-0.24-0.14-0.48,0.01-0.72C76.12,198.05,76.23,198.05,76.34,198.04z"/>
		<path class="st4" d="M52.57,72.56c1.3-2.29,2.69-4.5,4.09-6.78c0.06,0.71,0.12,1.43,0.19,2.14c0.17,1.88,0.33,3.76,0.74,5.6
			c0.13,0.56,0.14,1.05-0.08,1.57c-0.15,0.35-0.16,0.76-0.46,1.18c-0.03-1.26-0.4-2.3-1.25-3.13
			C54.87,72.21,53.79,72.17,52.57,72.56z"/>
		<path class="st5" d="M101.62,17.29c-0.24-0.16-0.26-0.33-0.08-0.58c0.21-0.28,0.28-0.67,0.74-0.68c0.28,0,0.52,0.1,0.79,0.2
			c-0.4,0.51-1.18,0.45-1.47,1.06C101.61,17.29,101.62,17.29,101.62,17.29z"/>
		<path class="st3" d="M13.33,177.79c-0.09,0.11,0.04,0.41-0.28,0.32c-0.17-0.05-0.34-0.11-0.51-0.17
			c-0.14-0.06-0.26-0.16-0.17-0.33c0.08-0.14,0.2-0.06,0.31-0.02C12.9,177.65,13.05,177.91,13.33,177.79L13.33,177.79z"/>
		<path class="st5" d="M53.24,45.98c0.13,0.02,0.27,0.04,0.4,0.06c-0.13,0.24-0.27,0.48-0.59,0.5l0.01,0.01
			C53,46.33,53.06,46.14,53.24,45.98z"/>
		<path class="st3" d="M96.72,22.85c0.02,0.04,0.08,0.08,0.07,0.13c-0.01,0.14-0.13,0.17-0.24,0.19c-0.02,0-0.08-0.08-0.07-0.12
			C96.5,22.93,96.6,22.87,96.72,22.85z"/>
		<path class="st6" d="M74.22,186.88c-0.05,0.05-0.14,0.15-0.15,0.14c-0.13-0.09-0.05-0.18,0.01-0.27
			C74.12,186.79,74.17,186.84,74.22,186.88z"/>
		<path class="st6" d="M69.4,164.36c-0.07,0.03-0.18,0.11-0.21,0.08c-0.11-0.09-0.05-0.19,0.04-0.28
			C69.28,164.23,69.34,164.3,69.4,164.36z"/>
		<path class="st6" d="M64.76,142.28c-0.02,0.02-0.04,0.04-0.06,0.06c-0.02-0.04-0.04-0.07-0.05-0.11c0-0.01,0.03-0.04,0.05-0.05
			C64.72,142.22,64.74,142.25,64.76,142.28z"/>
		<path class="st6" d="M8.73,116.61c0.03,0.07,0.1,0.17,0.08,0.19c-0.08,0.1-0.18,0.05-0.27-0.02
			C8.61,116.72,8.67,116.66,8.73,116.61z"/>
		<path class="st7" d="M59.4,108.41c-0.05,0.05-0.13,0.15-0.14,0.14c-0.13-0.07-0.05-0.17,0-0.25
			C59.3,108.33,59.35,108.37,59.4,108.41z"/>
		<path class="st6" d="M16.34,98.53c0.04,0.09,0.15,0.18,0.04,0.28c-0.12,0.1-0.18-0.03-0.26-0.09
			C16.19,98.66,16.27,98.59,16.34,98.53z"/>
		<path class="st6" d="M79.33,208.1c-0.07,0.06-0.15,0.1-0.21-0.01c-0.01-0.01,0.07-0.07,0.11-0.11
			C79.26,208.01,79.3,208.05,79.33,208.1z"/>
		<path class="st6" d="M74.11,98.05c-0.02-0.01-0.04-0.02-0.06-0.03c0.02-0.03,0.04-0.06,0.06-0.09c0.02,0.02,0.04,0.04,0.06,0.06
			C74.16,98.01,74.13,98.03,74.11,98.05z"/>
		<path class="st8" d="M56.48,97.17c-0.02,0.04-0.05,0.09-0.07,0.13c-0.01-0.04-0.04-0.08-0.04-0.11c0.02-0.06,0.07-0.06,0.13,0
			C56.49,97.19,56.48,97.17,56.48,97.17z"/>
		<path class="st6" d="M80.19,221.78c-0.05,0.08-0.12,0.13-0.2,0.07c-0.09-0.06-0.02-0.15,0.02-0.22
			C80.07,221.69,80.13,221.73,80.19,221.78z"/>
		<path class="st6" d="M20.08,88.78c0.08,0.08,0.13,0.19,0.04,0.28c-0.03,0.02-0.14-0.04-0.21-0.06
			C19.96,88.93,20.02,88.86,20.08,88.78z"/>
		<path class="st6" d="M84.2,69.64c-0.07,0.04-0.16,0.09-0.21,0.01c-0.06-0.08,0.01-0.14,0.09-0.17
			C84.12,69.53,84.16,69.59,84.2,69.64z"/>
		<path class="st9" d="M56.9,227.43c0.1,0.05,0.12,0.11,0.04,0.2c-0.04-0.04-0.07-0.07-0.11-0.11
			C56.86,227.49,56.88,227.46,56.9,227.43z"/>
		<path class="st6" d="M82.52,231.7c-0.03,0.08-0.07,0.18-0.17,0.11c-0.08-0.06-0.02-0.16,0.03-0.23
			C82.42,231.62,82.47,231.66,82.52,231.7z"/>
		<path class="st7" d="M69.34,58.35c-0.04,0.08-0.12,0.15-0.19,0.07c-0.08-0.08,0.02-0.13,0.09-0.18
			C69.28,58.28,69.31,58.32,69.34,58.35z"/>
		<path class="st5" d="M53.04,46.55c-0.01,0.03-0.02,0.08-0.03,0.08c-0.06-0.01-0.05-0.03,0.04-0.07
			C53.06,46.56,53.04,46.55,53.04,46.55z"/>
		<path class="st7" d="M63.28,241.34c0.02-0.02,0.04-0.04,0.07-0.06c0,0,0.02,0.01,0.03,0.02c-0.03,0.01-0.06,0.01-0.08,0.02
			C63.29,241.33,63.28,241.34,63.28,241.34z"/>
		<path class="st6" d="M83.98,241.84c-0.03,0.1-0.09,0.16-0.19,0.17c-0.05-0.04-0.09-0.09-0.14-0.13c0.04-0.06,0.08-0.12,0.11-0.18
			C83.84,241.75,83.91,241.8,83.98,241.84z"/>
		<path class="st6" d="M83.79,242.01c-0.03,0.08-0.08,0.18-0.18,0.1c-0.08-0.07-0.02-0.16,0.04-0.23
			C83.69,241.93,83.74,241.97,83.79,242.01z"/>
		<path class="st10" d="M87.12,34.24c-0.04-0.02-0.07-0.04-0.11-0.06c0.02-0.02,0.04-0.06,0.06-0.05c0.04,0.01,0.08,0.04,0.11,0.05
			C87.16,34.2,87.14,34.22,87.12,34.24z"/>
		<path class="st9" d="M68.32,250.85c0.01,0.02,0.04,0.04,0.04,0.06c0,0.02-0.03,0.03-0.05,0.05c-0.01-0.02-0.04-0.04-0.04-0.06
			C68.27,250.88,68.3,250.86,68.32,250.85z"/>
		<path class="st2" d="M76.36,198.42c0.07,0.19-0.01,0.25-0.19,0.19C76.15,198.45,76.19,198.37,76.36,198.42z"/>
		<path class="st2" d="M76.18,198.6c0.05,0.18,0,0.26-0.2,0.19C76,198.67,76.02,198.56,76.18,198.6z"/>
	</g>
</g>
</svg>
